G04 #@! TF.GenerationSoftware,KiCad,Pcbnew,(5.1.2)-1*
G04 #@! TF.CreationDate,2019-05-29T22:54:16+01:00*
G04 #@! TF.ProjectId,noname,6e6f6e61-6d65-42e6-9b69-6361645f7063,rev?*
G04 #@! TF.SameCoordinates,Original*
G04 #@! TF.FileFunction,Copper,L1,Top*
G04 #@! TF.FilePolarity,Positive*
%FSLAX46Y46*%
G04 Gerber Fmt 4.6, Leading zero omitted, Abs format (unit mm)*
G04 Created by KiCad (PCBNEW (5.1.2)-1) date 2019-05-29 22:54:16*
%MOMM*%
%LPD*%
G04 APERTURE LIST*
%ADD10C,0.010000*%
%ADD11C,1.700000*%
%ADD12O,1.700000X1.700000*%
G04 APERTURE END LIST*
D10*
G36*
X30501167Y-31496000D02*
G01*
X-30501166Y-31496000D01*
X-30501166Y30501167D01*
X-29506333Y30501167D01*
X-29506333Y-30501166D01*
X29506334Y-30501166D01*
X29506334Y30501167D01*
X-29506333Y30501167D01*
X-30501166Y30501167D01*
X-30501166Y31496000D01*
X30501167Y31496000D01*
X30501167Y-31496000D01*
X30501167Y-31496000D01*
G37*
X30501167Y-31496000D02*
X-30501166Y-31496000D01*
X-30501166Y30501167D01*
X-29506333Y30501167D01*
X-29506333Y-30501166D01*
X29506334Y-30501166D01*
X29506334Y30501167D01*
X-29506333Y30501167D01*
X-30501166Y30501167D01*
X-30501166Y31496000D01*
X30501167Y31496000D01*
X30501167Y-31496000D01*
G36*
X-17883218Y-16713617D02*
G01*
X-17815283Y-16742972D01*
X-17714265Y-16795616D01*
X-17580975Y-16871069D01*
X-17416222Y-16968850D01*
X-17220816Y-17088479D01*
X-16995565Y-17229478D01*
X-16741279Y-17391364D01*
X-16467666Y-17567885D01*
X-15895173Y-17933737D01*
X-15345152Y-18273910D01*
X-14819030Y-18587574D01*
X-14318229Y-18873901D01*
X-13844177Y-19132061D01*
X-13398299Y-19361224D01*
X-13313833Y-19402915D01*
X-12957622Y-19582710D01*
X-12635805Y-19756975D01*
X-12341667Y-19930284D01*
X-12068492Y-20107210D01*
X-11809563Y-20292327D01*
X-11558166Y-20490207D01*
X-11307584Y-20705425D01*
X-11051102Y-20942554D01*
X-11046368Y-20947072D01*
X-10759792Y-21212972D01*
X-10490094Y-21446812D01*
X-10232232Y-21652746D01*
X-9981162Y-21834932D01*
X-9911714Y-21882039D01*
X-9809895Y-21949549D01*
X-9717675Y-22009211D01*
X-9629520Y-22064114D01*
X-9539894Y-22117343D01*
X-9443261Y-22171986D01*
X-9334089Y-22231131D01*
X-9206840Y-22297864D01*
X-9055981Y-22375274D01*
X-8875977Y-22466447D01*
X-8752416Y-22528672D01*
X-8500152Y-22657107D01*
X-8286706Y-22769162D01*
X-8111903Y-22864936D01*
X-7975571Y-22944530D01*
X-7877534Y-23008047D01*
X-7817618Y-23055586D01*
X-7796921Y-23082422D01*
X-7800383Y-23130544D01*
X-7838621Y-23195793D01*
X-7908631Y-23276200D01*
X-8007409Y-23369793D01*
X-8131949Y-23474604D01*
X-8279247Y-23588660D01*
X-8446300Y-23709994D01*
X-8630102Y-23836633D01*
X-8827649Y-23966608D01*
X-9035936Y-24097948D01*
X-9251959Y-24228685D01*
X-9472714Y-24356846D01*
X-9695196Y-24480462D01*
X-9916400Y-24597563D01*
X-10133322Y-24706178D01*
X-10342958Y-24804337D01*
X-10542303Y-24890071D01*
X-10571491Y-24901882D01*
X-10886427Y-25013517D01*
X-11233713Y-25109780D01*
X-11605668Y-25189064D01*
X-11994607Y-25249763D01*
X-12392848Y-25290268D01*
X-12446000Y-25294040D01*
X-12576657Y-25302462D01*
X-12683252Y-25307997D01*
X-12777039Y-25310632D01*
X-12869277Y-25310351D01*
X-12971220Y-25307141D01*
X-13094126Y-25300986D01*
X-13230145Y-25293027D01*
X-13705137Y-25245010D01*
X-14175304Y-25159414D01*
X-14636277Y-25037797D01*
X-15083689Y-24881714D01*
X-15513170Y-24692721D01*
X-15920353Y-24472374D01*
X-16300869Y-24222229D01*
X-16361833Y-24177419D01*
X-16717122Y-23888846D01*
X-17038499Y-23579704D01*
X-17324749Y-23251616D01*
X-17574662Y-22906202D01*
X-17787023Y-22545081D01*
X-17960622Y-22169874D01*
X-18052467Y-21918083D01*
X-18158951Y-21537593D01*
X-18240503Y-21123545D01*
X-18297093Y-20676612D01*
X-18304866Y-20558749D01*
X-16780634Y-20558749D01*
X-16779446Y-20816365D01*
X-16766848Y-21048958D01*
X-16740890Y-21266768D01*
X-16699622Y-21480037D01*
X-16641096Y-21699007D01*
X-16563362Y-21933920D01*
X-16473538Y-22172083D01*
X-16325341Y-22519721D01*
X-16163091Y-22847814D01*
X-15989185Y-23152839D01*
X-15806020Y-23431273D01*
X-15615994Y-23679594D01*
X-15421504Y-23894278D01*
X-15224947Y-24071802D01*
X-15134166Y-24140249D01*
X-14957157Y-24256254D01*
X-14757313Y-24372046D01*
X-14545217Y-24482464D01*
X-14331448Y-24582346D01*
X-14126589Y-24666530D01*
X-13941218Y-24729856D01*
X-13903235Y-24740714D01*
X-13690500Y-24791935D01*
X-13444325Y-24838955D01*
X-13173510Y-24880379D01*
X-12886855Y-24914808D01*
X-12689416Y-24933343D01*
X-12563977Y-24940821D01*
X-12415641Y-24944903D01*
X-12253018Y-24945807D01*
X-12084714Y-24943751D01*
X-11919336Y-24938954D01*
X-11765493Y-24931634D01*
X-11631791Y-24922010D01*
X-11526838Y-24910300D01*
X-11482916Y-24902721D01*
X-11284252Y-24840729D01*
X-11091673Y-24742328D01*
X-10915998Y-24613173D01*
X-10897252Y-24596498D01*
X-10719100Y-24416431D01*
X-10576068Y-24232343D01*
X-10470174Y-24047385D01*
X-10403438Y-23864706D01*
X-10390441Y-23805938D01*
X-10381168Y-23640679D01*
X-10412412Y-23472681D01*
X-10482823Y-23305487D01*
X-10591054Y-23142641D01*
X-10681880Y-23039948D01*
X-10743588Y-22981948D01*
X-10810069Y-22930996D01*
X-10884828Y-22886278D01*
X-10971371Y-22846979D01*
X-11073202Y-22812286D01*
X-11193826Y-22781384D01*
X-11336748Y-22753460D01*
X-11505472Y-22727699D01*
X-11703504Y-22703287D01*
X-11934349Y-22679409D01*
X-12201511Y-22655253D01*
X-12414250Y-22637561D01*
X-12776059Y-22605618D01*
X-13113670Y-22570457D01*
X-13423381Y-22532564D01*
X-13701490Y-22492427D01*
X-13944292Y-22450533D01*
X-14128750Y-22411918D01*
X-14337323Y-22346691D01*
X-14561019Y-22245503D01*
X-14796929Y-22110698D01*
X-15042145Y-21944614D01*
X-15293757Y-21749594D01*
X-15548857Y-21527978D01*
X-15804535Y-21282108D01*
X-16057883Y-21014325D01*
X-16305992Y-20726969D01*
X-16457800Y-20537582D01*
X-16774583Y-20130748D01*
X-16780634Y-20558749D01*
X-18304866Y-20558749D01*
X-18328694Y-20197468D01*
X-18335278Y-19686787D01*
X-18316816Y-19145243D01*
X-18273280Y-18573510D01*
X-18214531Y-18048510D01*
X-18182112Y-17810241D01*
X-18147643Y-17586001D01*
X-18111912Y-17379340D01*
X-18075707Y-17193809D01*
X-18039813Y-17032957D01*
X-18005020Y-16900335D01*
X-17972114Y-16799494D01*
X-17941882Y-16733985D01*
X-17917264Y-16708031D01*
X-17883218Y-16713617D01*
X-17883218Y-16713617D01*
G37*
X-17883218Y-16713617D02*
X-17815283Y-16742972D01*
X-17714265Y-16795616D01*
X-17580975Y-16871069D01*
X-17416222Y-16968850D01*
X-17220816Y-17088479D01*
X-16995565Y-17229478D01*
X-16741279Y-17391364D01*
X-16467666Y-17567885D01*
X-15895173Y-17933737D01*
X-15345152Y-18273910D01*
X-14819030Y-18587574D01*
X-14318229Y-18873901D01*
X-13844177Y-19132061D01*
X-13398299Y-19361224D01*
X-13313833Y-19402915D01*
X-12957622Y-19582710D01*
X-12635805Y-19756975D01*
X-12341667Y-19930284D01*
X-12068492Y-20107210D01*
X-11809563Y-20292327D01*
X-11558166Y-20490207D01*
X-11307584Y-20705425D01*
X-11051102Y-20942554D01*
X-11046368Y-20947072D01*
X-10759792Y-21212972D01*
X-10490094Y-21446812D01*
X-10232232Y-21652746D01*
X-9981162Y-21834932D01*
X-9911714Y-21882039D01*
X-9809895Y-21949549D01*
X-9717675Y-22009211D01*
X-9629520Y-22064114D01*
X-9539894Y-22117343D01*
X-9443261Y-22171986D01*
X-9334089Y-22231131D01*
X-9206840Y-22297864D01*
X-9055981Y-22375274D01*
X-8875977Y-22466447D01*
X-8752416Y-22528672D01*
X-8500152Y-22657107D01*
X-8286706Y-22769162D01*
X-8111903Y-22864936D01*
X-7975571Y-22944530D01*
X-7877534Y-23008047D01*
X-7817618Y-23055586D01*
X-7796921Y-23082422D01*
X-7800383Y-23130544D01*
X-7838621Y-23195793D01*
X-7908631Y-23276200D01*
X-8007409Y-23369793D01*
X-8131949Y-23474604D01*
X-8279247Y-23588660D01*
X-8446300Y-23709994D01*
X-8630102Y-23836633D01*
X-8827649Y-23966608D01*
X-9035936Y-24097948D01*
X-9251959Y-24228685D01*
X-9472714Y-24356846D01*
X-9695196Y-24480462D01*
X-9916400Y-24597563D01*
X-10133322Y-24706178D01*
X-10342958Y-24804337D01*
X-10542303Y-24890071D01*
X-10571491Y-24901882D01*
X-10886427Y-25013517D01*
X-11233713Y-25109780D01*
X-11605668Y-25189064D01*
X-11994607Y-25249763D01*
X-12392848Y-25290268D01*
X-12446000Y-25294040D01*
X-12576657Y-25302462D01*
X-12683252Y-25307997D01*
X-12777039Y-25310632D01*
X-12869277Y-25310351D01*
X-12971220Y-25307141D01*
X-13094126Y-25300986D01*
X-13230145Y-25293027D01*
X-13705137Y-25245010D01*
X-14175304Y-25159414D01*
X-14636277Y-25037797D01*
X-15083689Y-24881714D01*
X-15513170Y-24692721D01*
X-15920353Y-24472374D01*
X-16300869Y-24222229D01*
X-16361833Y-24177419D01*
X-16717122Y-23888846D01*
X-17038499Y-23579704D01*
X-17324749Y-23251616D01*
X-17574662Y-22906202D01*
X-17787023Y-22545081D01*
X-17960622Y-22169874D01*
X-18052467Y-21918083D01*
X-18158951Y-21537593D01*
X-18240503Y-21123545D01*
X-18297093Y-20676612D01*
X-18304866Y-20558749D01*
X-16780634Y-20558749D01*
X-16779446Y-20816365D01*
X-16766848Y-21048958D01*
X-16740890Y-21266768D01*
X-16699622Y-21480037D01*
X-16641096Y-21699007D01*
X-16563362Y-21933920D01*
X-16473538Y-22172083D01*
X-16325341Y-22519721D01*
X-16163091Y-22847814D01*
X-15989185Y-23152839D01*
X-15806020Y-23431273D01*
X-15615994Y-23679594D01*
X-15421504Y-23894278D01*
X-15224947Y-24071802D01*
X-15134166Y-24140249D01*
X-14957157Y-24256254D01*
X-14757313Y-24372046D01*
X-14545217Y-24482464D01*
X-14331448Y-24582346D01*
X-14126589Y-24666530D01*
X-13941218Y-24729856D01*
X-13903235Y-24740714D01*
X-13690500Y-24791935D01*
X-13444325Y-24838955D01*
X-13173510Y-24880379D01*
X-12886855Y-24914808D01*
X-12689416Y-24933343D01*
X-12563977Y-24940821D01*
X-12415641Y-24944903D01*
X-12253018Y-24945807D01*
X-12084714Y-24943751D01*
X-11919336Y-24938954D01*
X-11765493Y-24931634D01*
X-11631791Y-24922010D01*
X-11526838Y-24910300D01*
X-11482916Y-24902721D01*
X-11284252Y-24840729D01*
X-11091673Y-24742328D01*
X-10915998Y-24613173D01*
X-10897252Y-24596498D01*
X-10719100Y-24416431D01*
X-10576068Y-24232343D01*
X-10470174Y-24047385D01*
X-10403438Y-23864706D01*
X-10390441Y-23805938D01*
X-10381168Y-23640679D01*
X-10412412Y-23472681D01*
X-10482823Y-23305487D01*
X-10591054Y-23142641D01*
X-10681880Y-23039948D01*
X-10743588Y-22981948D01*
X-10810069Y-22930996D01*
X-10884828Y-22886278D01*
X-10971371Y-22846979D01*
X-11073202Y-22812286D01*
X-11193826Y-22781384D01*
X-11336748Y-22753460D01*
X-11505472Y-22727699D01*
X-11703504Y-22703287D01*
X-11934349Y-22679409D01*
X-12201511Y-22655253D01*
X-12414250Y-22637561D01*
X-12776059Y-22605618D01*
X-13113670Y-22570457D01*
X-13423381Y-22532564D01*
X-13701490Y-22492427D01*
X-13944292Y-22450533D01*
X-14128750Y-22411918D01*
X-14337323Y-22346691D01*
X-14561019Y-22245503D01*
X-14796929Y-22110698D01*
X-15042145Y-21944614D01*
X-15293757Y-21749594D01*
X-15548857Y-21527978D01*
X-15804535Y-21282108D01*
X-16057883Y-21014325D01*
X-16305992Y-20726969D01*
X-16457800Y-20537582D01*
X-16774583Y-20130748D01*
X-16780634Y-20558749D01*
X-18304866Y-20558749D01*
X-18328694Y-20197468D01*
X-18335278Y-19686787D01*
X-18316816Y-19145243D01*
X-18273280Y-18573510D01*
X-18214531Y-18048510D01*
X-18182112Y-17810241D01*
X-18147643Y-17586001D01*
X-18111912Y-17379340D01*
X-18075707Y-17193809D01*
X-18039813Y-17032957D01*
X-18005020Y-16900335D01*
X-17972114Y-16799494D01*
X-17941882Y-16733985D01*
X-17917264Y-16708031D01*
X-17883218Y-16713617D01*
G36*
X17853503Y-16703447D02*
G01*
X17863451Y-16728493D01*
X17881081Y-16788004D01*
X17904698Y-16875162D01*
X17932606Y-16983152D01*
X17963111Y-17105156D01*
X17994515Y-17234357D01*
X18025125Y-17363938D01*
X18053244Y-17487082D01*
X18077176Y-17596974D01*
X18084411Y-17631833D01*
X18148631Y-17999781D01*
X18198319Y-18397866D01*
X18233423Y-18817793D01*
X18253891Y-19251268D01*
X18259669Y-19689996D01*
X18250706Y-20125683D01*
X18226949Y-20550035D01*
X18188345Y-20954758D01*
X18134841Y-21331557D01*
X18108763Y-21475135D01*
X18013243Y-21855899D01*
X17877212Y-22227512D01*
X17701810Y-22588398D01*
X17488178Y-22936978D01*
X17237455Y-23271674D01*
X16950781Y-23590909D01*
X16629297Y-23893105D01*
X16274141Y-24176684D01*
X16036716Y-24343008D01*
X15642095Y-24581072D01*
X15222406Y-24787309D01*
X14781589Y-24960726D01*
X14323585Y-25100326D01*
X13852333Y-25205116D01*
X13371775Y-25274102D01*
X12885849Y-25306289D01*
X12398497Y-25300683D01*
X12272671Y-25292957D01*
X11756999Y-25234833D01*
X11244155Y-25135130D01*
X10736316Y-24994597D01*
X10235655Y-24813983D01*
X9744346Y-24594038D01*
X9264565Y-24335510D01*
X8974667Y-24156709D01*
X8800769Y-24039662D01*
X8622055Y-23911365D01*
X8444778Y-23776893D01*
X8275195Y-23641321D01*
X8119562Y-23509726D01*
X8105297Y-23496818D01*
X9703793Y-23496818D01*
X9704361Y-23534982D01*
X9738440Y-23592405D01*
X9803152Y-23666713D01*
X9895619Y-23755531D01*
X10012963Y-23856488D01*
X10152305Y-23967209D01*
X10310767Y-24085321D01*
X10485471Y-24208451D01*
X10673539Y-24334225D01*
X10872092Y-24460271D01*
X10872413Y-24460469D01*
X11139064Y-24618951D01*
X11382661Y-24749606D01*
X11609579Y-24855037D01*
X11826194Y-24937845D01*
X12038882Y-25000634D01*
X12254019Y-25046006D01*
X12340167Y-25059571D01*
X12425265Y-25071974D01*
X12500136Y-25083210D01*
X12549523Y-25090984D01*
X12551834Y-25091374D01*
X12611529Y-25096683D01*
X12705278Y-25099196D01*
X12824910Y-25099191D01*
X12962258Y-25096949D01*
X13109152Y-25092749D01*
X13257423Y-25086870D01*
X13398903Y-25079592D01*
X13525423Y-25071194D01*
X13628815Y-25061955D01*
X13700909Y-25052155D01*
X13701448Y-25052055D01*
X14141150Y-24949042D01*
X14564136Y-24808203D01*
X14968236Y-24630412D01*
X15351280Y-24416542D01*
X15471051Y-24339295D01*
X15754660Y-24136515D01*
X16013147Y-23924344D01*
X16244053Y-23705637D01*
X16444920Y-23483253D01*
X16613290Y-23260047D01*
X16746703Y-23038876D01*
X16842703Y-22822598D01*
X16879869Y-22702094D01*
X16901099Y-22581048D01*
X16910549Y-22440765D01*
X16908260Y-22297579D01*
X16894270Y-22167823D01*
X16878377Y-22096550D01*
X16809560Y-21914554D01*
X16716290Y-21746080D01*
X16604061Y-21598428D01*
X16478364Y-21478897D01*
X16353691Y-21399122D01*
X16194209Y-21341303D01*
X16022197Y-21319175D01*
X15836842Y-21333041D01*
X15637326Y-21383205D01*
X15422832Y-21469972D01*
X15192545Y-21593643D01*
X14945649Y-21754524D01*
X14681327Y-21952917D01*
X14528149Y-22078199D01*
X14280870Y-22283887D01*
X14060133Y-22462760D01*
X13862016Y-22617396D01*
X13682593Y-22750372D01*
X13517941Y-22864264D01*
X13364134Y-22961650D01*
X13217250Y-23045107D01*
X13073362Y-23117211D01*
X12928548Y-23180541D01*
X12778883Y-23237671D01*
X12743533Y-23250146D01*
X12561698Y-23308492D01*
X12380662Y-23355698D01*
X12194634Y-23392328D01*
X11997821Y-23418947D01*
X11784432Y-23436119D01*
X11548673Y-23444407D01*
X11284754Y-23444377D01*
X10986881Y-23436592D01*
X10874738Y-23432190D01*
X10593202Y-23422207D01*
X10352464Y-23417757D01*
X10151344Y-23418906D01*
X9988661Y-23425718D01*
X9863233Y-23438259D01*
X9773881Y-23456594D01*
X9719424Y-23480789D01*
X9703793Y-23496818D01*
X8105297Y-23496818D01*
X7984134Y-23387183D01*
X7875166Y-23278768D01*
X7828666Y-23226867D01*
X7762368Y-23142945D01*
X7725515Y-23081335D01*
X7715489Y-23036702D01*
X7723300Y-23012266D01*
X7744693Y-22998445D01*
X7800011Y-22968252D01*
X7885100Y-22923804D01*
X7995802Y-22867222D01*
X8127962Y-22800624D01*
X8277425Y-22726130D01*
X8440035Y-22645858D01*
X8487997Y-22622321D01*
X8665751Y-22534440D01*
X8841829Y-22445972D01*
X9010172Y-22360062D01*
X9164722Y-22279854D01*
X9299419Y-22208494D01*
X9408205Y-22149127D01*
X9485020Y-22104897D01*
X9486199Y-22104182D01*
X9968533Y-21787377D01*
X10422008Y-21440024D01*
X10848509Y-21060678D01*
X10855434Y-21054043D01*
X11066527Y-20854702D01*
X11264008Y-20675680D01*
X11453259Y-20513257D01*
X11639666Y-20363714D01*
X11828609Y-20223330D01*
X12025473Y-20088386D01*
X12235640Y-19955162D01*
X12464493Y-19819938D01*
X12717416Y-19678995D01*
X12999790Y-19528613D01*
X13250334Y-19399102D01*
X13568838Y-19234792D01*
X13867221Y-19077797D01*
X14151101Y-18924839D01*
X14426095Y-18772642D01*
X14697821Y-18617927D01*
X14971898Y-18457419D01*
X15253941Y-18287839D01*
X15549570Y-18105911D01*
X15864402Y-17908356D01*
X16204055Y-17691898D01*
X16467667Y-17522155D01*
X16731176Y-17352883D01*
X16970246Y-17201385D01*
X17183593Y-17068419D01*
X17369935Y-16954744D01*
X17527986Y-16861117D01*
X17656465Y-16788296D01*
X17754087Y-16737041D01*
X17819569Y-16708109D01*
X17851628Y-16702259D01*
X17853503Y-16703447D01*
X17853503Y-16703447D01*
G37*
X17853503Y-16703447D02*
X17863451Y-16728493D01*
X17881081Y-16788004D01*
X17904698Y-16875162D01*
X17932606Y-16983152D01*
X17963111Y-17105156D01*
X17994515Y-17234357D01*
X18025125Y-17363938D01*
X18053244Y-17487082D01*
X18077176Y-17596974D01*
X18084411Y-17631833D01*
X18148631Y-17999781D01*
X18198319Y-18397866D01*
X18233423Y-18817793D01*
X18253891Y-19251268D01*
X18259669Y-19689996D01*
X18250706Y-20125683D01*
X18226949Y-20550035D01*
X18188345Y-20954758D01*
X18134841Y-21331557D01*
X18108763Y-21475135D01*
X18013243Y-21855899D01*
X17877212Y-22227512D01*
X17701810Y-22588398D01*
X17488178Y-22936978D01*
X17237455Y-23271674D01*
X16950781Y-23590909D01*
X16629297Y-23893105D01*
X16274141Y-24176684D01*
X16036716Y-24343008D01*
X15642095Y-24581072D01*
X15222406Y-24787309D01*
X14781589Y-24960726D01*
X14323585Y-25100326D01*
X13852333Y-25205116D01*
X13371775Y-25274102D01*
X12885849Y-25306289D01*
X12398497Y-25300683D01*
X12272671Y-25292957D01*
X11756999Y-25234833D01*
X11244155Y-25135130D01*
X10736316Y-24994597D01*
X10235655Y-24813983D01*
X9744346Y-24594038D01*
X9264565Y-24335510D01*
X8974667Y-24156709D01*
X8800769Y-24039662D01*
X8622055Y-23911365D01*
X8444778Y-23776893D01*
X8275195Y-23641321D01*
X8119562Y-23509726D01*
X8105297Y-23496818D01*
X9703793Y-23496818D01*
X9704361Y-23534982D01*
X9738440Y-23592405D01*
X9803152Y-23666713D01*
X9895619Y-23755531D01*
X10012963Y-23856488D01*
X10152305Y-23967209D01*
X10310767Y-24085321D01*
X10485471Y-24208451D01*
X10673539Y-24334225D01*
X10872092Y-24460271D01*
X10872413Y-24460469D01*
X11139064Y-24618951D01*
X11382661Y-24749606D01*
X11609579Y-24855037D01*
X11826194Y-24937845D01*
X12038882Y-25000634D01*
X12254019Y-25046006D01*
X12340167Y-25059571D01*
X12425265Y-25071974D01*
X12500136Y-25083210D01*
X12549523Y-25090984D01*
X12551834Y-25091374D01*
X12611529Y-25096683D01*
X12705278Y-25099196D01*
X12824910Y-25099191D01*
X12962258Y-25096949D01*
X13109152Y-25092749D01*
X13257423Y-25086870D01*
X13398903Y-25079592D01*
X13525423Y-25071194D01*
X13628815Y-25061955D01*
X13700909Y-25052155D01*
X13701448Y-25052055D01*
X14141150Y-24949042D01*
X14564136Y-24808203D01*
X14968236Y-24630412D01*
X15351280Y-24416542D01*
X15471051Y-24339295D01*
X15754660Y-24136515D01*
X16013147Y-23924344D01*
X16244053Y-23705637D01*
X16444920Y-23483253D01*
X16613290Y-23260047D01*
X16746703Y-23038876D01*
X16842703Y-22822598D01*
X16879869Y-22702094D01*
X16901099Y-22581048D01*
X16910549Y-22440765D01*
X16908260Y-22297579D01*
X16894270Y-22167823D01*
X16878377Y-22096550D01*
X16809560Y-21914554D01*
X16716290Y-21746080D01*
X16604061Y-21598428D01*
X16478364Y-21478897D01*
X16353691Y-21399122D01*
X16194209Y-21341303D01*
X16022197Y-21319175D01*
X15836842Y-21333041D01*
X15637326Y-21383205D01*
X15422832Y-21469972D01*
X15192545Y-21593643D01*
X14945649Y-21754524D01*
X14681327Y-21952917D01*
X14528149Y-22078199D01*
X14280870Y-22283887D01*
X14060133Y-22462760D01*
X13862016Y-22617396D01*
X13682593Y-22750372D01*
X13517941Y-22864264D01*
X13364134Y-22961650D01*
X13217250Y-23045107D01*
X13073362Y-23117211D01*
X12928548Y-23180541D01*
X12778883Y-23237671D01*
X12743533Y-23250146D01*
X12561698Y-23308492D01*
X12380662Y-23355698D01*
X12194634Y-23392328D01*
X11997821Y-23418947D01*
X11784432Y-23436119D01*
X11548673Y-23444407D01*
X11284754Y-23444377D01*
X10986881Y-23436592D01*
X10874738Y-23432190D01*
X10593202Y-23422207D01*
X10352464Y-23417757D01*
X10151344Y-23418906D01*
X9988661Y-23425718D01*
X9863233Y-23438259D01*
X9773881Y-23456594D01*
X9719424Y-23480789D01*
X9703793Y-23496818D01*
X8105297Y-23496818D01*
X7984134Y-23387183D01*
X7875166Y-23278768D01*
X7828666Y-23226867D01*
X7762368Y-23142945D01*
X7725515Y-23081335D01*
X7715489Y-23036702D01*
X7723300Y-23012266D01*
X7744693Y-22998445D01*
X7800011Y-22968252D01*
X7885100Y-22923804D01*
X7995802Y-22867222D01*
X8127962Y-22800624D01*
X8277425Y-22726130D01*
X8440035Y-22645858D01*
X8487997Y-22622321D01*
X8665751Y-22534440D01*
X8841829Y-22445972D01*
X9010172Y-22360062D01*
X9164722Y-22279854D01*
X9299419Y-22208494D01*
X9408205Y-22149127D01*
X9485020Y-22104897D01*
X9486199Y-22104182D01*
X9968533Y-21787377D01*
X10422008Y-21440024D01*
X10848509Y-21060678D01*
X10855434Y-21054043D01*
X11066527Y-20854702D01*
X11264008Y-20675680D01*
X11453259Y-20513257D01*
X11639666Y-20363714D01*
X11828609Y-20223330D01*
X12025473Y-20088386D01*
X12235640Y-19955162D01*
X12464493Y-19819938D01*
X12717416Y-19678995D01*
X12999790Y-19528613D01*
X13250334Y-19399102D01*
X13568838Y-19234792D01*
X13867221Y-19077797D01*
X14151101Y-18924839D01*
X14426095Y-18772642D01*
X14697821Y-18617927D01*
X14971898Y-18457419D01*
X15253941Y-18287839D01*
X15549570Y-18105911D01*
X15864402Y-17908356D01*
X16204055Y-17691898D01*
X16467667Y-17522155D01*
X16731176Y-17352883D01*
X16970246Y-17201385D01*
X17183593Y-17068419D01*
X17369935Y-16954744D01*
X17527986Y-16861117D01*
X17656465Y-16788296D01*
X17754087Y-16737041D01*
X17819569Y-16708109D01*
X17851628Y-16702259D01*
X17853503Y-16703447D01*
G36*
X-15269508Y25314111D02*
G01*
X-15157006Y25301725D01*
X-15050950Y25276807D01*
X-14937877Y25236079D01*
X-14804327Y25176262D01*
X-14784916Y25166989D01*
X-14559200Y25038672D01*
X-14360796Y24884994D01*
X-14192709Y24709432D01*
X-14057943Y24515466D01*
X-13959503Y24306575D01*
X-13915457Y24160383D01*
X-13894851Y24022140D01*
X-13889672Y23859544D01*
X-13899261Y23687399D01*
X-13922959Y23520509D01*
X-13948837Y23410334D01*
X-13976319Y23327432D01*
X-14017130Y23220743D01*
X-14065650Y23104333D01*
X-14113749Y22997584D01*
X-14165691Y22882009D01*
X-14205116Y22778109D01*
X-14231212Y22680925D01*
X-14243165Y22585501D01*
X-14240161Y22486878D01*
X-14221389Y22380100D01*
X-14186034Y22260209D01*
X-14133284Y22122247D01*
X-14062326Y21961256D01*
X-13972346Y21772280D01*
X-13883165Y21591689D01*
X-13637065Y21106923D01*
X-13378715Y20614792D01*
X-13110338Y20118940D01*
X-12834153Y19623009D01*
X-12552384Y19130641D01*
X-12267251Y18645479D01*
X-11980975Y18171165D01*
X-11695777Y17711342D01*
X-11413880Y17269652D01*
X-11137504Y16849738D01*
X-10868871Y16455242D01*
X-10610202Y16089806D01*
X-10363718Y15757074D01*
X-10183869Y15525750D01*
X-10080622Y15400336D01*
X-9972246Y15276118D01*
X-9863659Y15158093D01*
X-9759777Y15051258D01*
X-9665517Y14960608D01*
X-9585794Y14891139D01*
X-9525525Y14847848D01*
X-9508092Y14839031D01*
X-9433927Y14823926D01*
X-9320219Y14822808D01*
X-9166917Y14835684D01*
X-8973971Y14862565D01*
X-8741331Y14903458D01*
X-8468948Y14958372D01*
X-8156772Y15027316D01*
X-7804753Y15110298D01*
X-7498992Y15185651D01*
X-6972055Y15315026D01*
X-6478397Y15430376D01*
X-6011725Y15532710D01*
X-5565746Y15623035D01*
X-5134164Y15702362D01*
X-4710686Y15771698D01*
X-4289019Y15832053D01*
X-3862868Y15884436D01*
X-3425939Y15929855D01*
X-2971939Y15969320D01*
X-2494573Y16003839D01*
X-2328333Y16014472D01*
X-2161918Y16023180D01*
X-1958657Y16031132D01*
X-1724030Y16038281D01*
X-1463519Y16044582D01*
X-1182604Y16049989D01*
X-886767Y16054456D01*
X-581488Y16057939D01*
X-272249Y16060390D01*
X35470Y16061765D01*
X336187Y16062018D01*
X624421Y16061103D01*
X894692Y16058974D01*
X1141519Y16055586D01*
X1359420Y16050893D01*
X1502834Y16046406D01*
X2060904Y16022265D01*
X2589667Y15991593D01*
X3095643Y15953448D01*
X3585350Y15906891D01*
X4065307Y15850981D01*
X4542035Y15784776D01*
X5022052Y15707336D01*
X5511878Y15617720D01*
X6018032Y15514987D01*
X6547033Y15398197D01*
X7105400Y15266407D01*
X7387167Y15197196D01*
X7766612Y15104551D01*
X8106273Y15025063D01*
X8406576Y14958651D01*
X8667948Y14905237D01*
X8890816Y14864740D01*
X9075607Y14837082D01*
X9222747Y14822183D01*
X9332663Y14819964D01*
X9385797Y14825550D01*
X9448085Y14851773D01*
X9531238Y14909381D01*
X9631565Y14995270D01*
X9745377Y15106340D01*
X9840697Y15207973D01*
X10020188Y15415441D01*
X10215482Y15658563D01*
X10424802Y15934482D01*
X10646371Y16240341D01*
X10878414Y16573285D01*
X11119152Y16930456D01*
X11366809Y17308998D01*
X11619609Y17706055D01*
X11875774Y18118769D01*
X12133529Y18544284D01*
X12391095Y18979743D01*
X12646697Y19422291D01*
X12898558Y19869069D01*
X13144900Y20317223D01*
X13383947Y20763894D01*
X13613923Y21206226D01*
X13797045Y21568834D01*
X13895960Y21769447D01*
X13976392Y21937638D01*
X14040110Y22078158D01*
X14088878Y22195762D01*
X14124465Y22295204D01*
X14148637Y22381235D01*
X14163161Y22458611D01*
X14169802Y22532084D01*
X14170739Y22574250D01*
X14169383Y22638606D01*
X14163149Y22693611D01*
X14149014Y22749442D01*
X14123954Y22816281D01*
X14084946Y22904307D01*
X14051286Y22976417D01*
X13970623Y23156121D01*
X13910299Y23311793D01*
X13866813Y23454383D01*
X13836667Y23594843D01*
X13822152Y23693520D01*
X13812444Y23932135D01*
X13843558Y24160255D01*
X13915065Y24376898D01*
X14026536Y24581077D01*
X14177541Y24771808D01*
X14367651Y24948106D01*
X14369770Y24949811D01*
X14583196Y25098960D01*
X14802749Y25207398D01*
X15032415Y25276693D01*
X15276182Y25308412D01*
X15282334Y25308730D01*
X15521171Y25303704D01*
X15739015Y25262818D01*
X15939318Y25184770D01*
X16125528Y25068265D01*
X16280083Y24933288D01*
X16434635Y24750033D01*
X16554193Y24543090D01*
X16638379Y24313138D01*
X16650178Y24267584D01*
X16671700Y24141786D01*
X16683626Y23990820D01*
X16685923Y23829769D01*
X16678557Y23673719D01*
X16661492Y23537755D01*
X16651955Y23492426D01*
X16574687Y23259355D01*
X16463288Y23047882D01*
X16320375Y22861302D01*
X16148567Y22702913D01*
X15950483Y22576013D01*
X15906750Y22554130D01*
X15778464Y22499469D01*
X15646880Y22458339D01*
X15501583Y22428453D01*
X15332155Y22407525D01*
X15189638Y22396736D01*
X15066880Y22388245D01*
X14976406Y22378948D01*
X14908180Y22366989D01*
X14852164Y22350512D01*
X14798322Y22327662D01*
X14787301Y22322344D01*
X14722690Y22285821D01*
X14658424Y22238326D01*
X14592077Y22176699D01*
X14521222Y22097775D01*
X14443430Y21998394D01*
X14356276Y21875393D01*
X14257332Y21725611D01*
X14144171Y21545884D01*
X14014366Y21333050D01*
X13965261Y21251334D01*
X13684204Y20768858D01*
X13410523Y20272822D01*
X13145936Y19767253D01*
X12892161Y19256181D01*
X12650915Y18743635D01*
X12423917Y18233645D01*
X12212886Y17730240D01*
X12019539Y17237448D01*
X11845594Y16759301D01*
X11692770Y16299825D01*
X11562785Y15863052D01*
X11457356Y15453010D01*
X11418502Y15278849D01*
X11407138Y15218766D01*
X11391705Y15128115D01*
X11373236Y15013850D01*
X11352763Y14882923D01*
X11331318Y14742288D01*
X11309933Y14598896D01*
X11289642Y14459701D01*
X11271475Y14331656D01*
X11256465Y14221712D01*
X11245645Y14136824D01*
X11240047Y14083943D01*
X11239500Y14073147D01*
X11247213Y14060850D01*
X11271899Y14041354D01*
X11315881Y14013428D01*
X11381479Y13975842D01*
X11471015Y13927365D01*
X11586811Y13866766D01*
X11731189Y13792813D01*
X11906469Y13704275D01*
X12114973Y13599922D01*
X12359024Y13478522D01*
X12387792Y13464247D01*
X12752529Y13282587D01*
X13083015Y13116358D01*
X13383439Y12963267D01*
X13657992Y12821018D01*
X13910866Y12687315D01*
X14146250Y12559864D01*
X14368337Y12436369D01*
X14581315Y12314536D01*
X14789378Y12192069D01*
X14996714Y12066673D01*
X15207515Y11936053D01*
X15398750Y11815259D01*
X16092135Y11353311D01*
X16777451Y10856128D01*
X17450649Y10327456D01*
X18107684Y9771043D01*
X18744507Y9190633D01*
X19357070Y8589975D01*
X19941328Y7972815D01*
X20493232Y7342900D01*
X21008735Y6703976D01*
X21216536Y6429645D01*
X21680873Y5771830D01*
X22109507Y5096455D01*
X22503544Y4401322D01*
X22864086Y3684234D01*
X23192237Y2942993D01*
X23489102Y2175403D01*
X23755783Y1379264D01*
X23760130Y1365250D01*
X23859102Y1028990D01*
X23945604Y697472D01*
X24020320Y365581D01*
X24083937Y28205D01*
X24137138Y-319771D01*
X24180608Y-683461D01*
X24215033Y-1067978D01*
X24241097Y-1478436D01*
X24259484Y-1919949D01*
X24270881Y-2397631D01*
X24271777Y-2455333D01*
X24274359Y-3061579D01*
X24263430Y-3630796D01*
X24238664Y-4166181D01*
X24199734Y-4670934D01*
X24146312Y-5148253D01*
X24078070Y-5601335D01*
X23994683Y-6033381D01*
X23895821Y-6447589D01*
X23843898Y-6637083D01*
X23610703Y-7398061D01*
X23354457Y-8126097D01*
X23073048Y-8825041D01*
X22764367Y-9498740D01*
X22426303Y-10151045D01*
X22056746Y-10785804D01*
X21653587Y-11406867D01*
X21214713Y-12018082D01*
X20738016Y-12623299D01*
X20247122Y-13197416D01*
X19559737Y-13941265D01*
X18847986Y-14651031D01*
X18111746Y-15326775D01*
X17350899Y-15968555D01*
X16565323Y-16576433D01*
X15754897Y-17150469D01*
X14919501Y-17690721D01*
X14059014Y-18197251D01*
X13173315Y-18670118D01*
X12262283Y-19109383D01*
X11325799Y-19515104D01*
X10363740Y-19887343D01*
X9375986Y-20226160D01*
X8362417Y-20531614D01*
X7322911Y-20803765D01*
X6257349Y-21042674D01*
X5165608Y-21248400D01*
X4047570Y-21421003D01*
X3577167Y-21482756D01*
X2527064Y-21594909D01*
X1473176Y-21670369D01*
X421962Y-21708851D01*
X-620116Y-21710070D01*
X-1201037Y-21694227D01*
X-2306455Y-21631742D01*
X-3409714Y-21528099D01*
X-4508813Y-21383767D01*
X-5601749Y-21199217D01*
X-6686520Y-20974916D01*
X-7761125Y-20711333D01*
X-8823562Y-20408938D01*
X-9871828Y-20068200D01*
X-10903923Y-19689588D01*
X-11917844Y-19273571D01*
X-12350750Y-19081939D01*
X-12466516Y-19028524D01*
X-12608790Y-18961267D01*
X-12770999Y-18883412D01*
X-12946571Y-18798204D01*
X-13128933Y-18708887D01*
X-13311513Y-18618704D01*
X-13487739Y-18530902D01*
X-13651039Y-18448723D01*
X-13794839Y-18375412D01*
X-13912569Y-18314213D01*
X-13987516Y-18273984D01*
X-14484517Y-17996077D01*
X-14943163Y-17730606D01*
X-15365209Y-17476477D01*
X-15752414Y-17232595D01*
X-16106534Y-16997867D01*
X-16429327Y-16771199D01*
X-16585286Y-16656225D01*
X-17033684Y-16309190D01*
X-17490918Y-15935047D01*
X-17952499Y-15538227D01*
X-18413937Y-15123162D01*
X-18870743Y-14694284D01*
X-19284617Y-14289122D01*
X-17227922Y-14289122D01*
X-17222761Y-14330900D01*
X-17193217Y-14400882D01*
X-17165004Y-14455811D01*
X-17079735Y-14597940D01*
X-16963456Y-14763534D01*
X-16818414Y-14949864D01*
X-16646853Y-15154198D01*
X-16451020Y-15373806D01*
X-16233160Y-15605959D01*
X-16139583Y-15702506D01*
X-15930810Y-15911769D01*
X-15734267Y-16098960D01*
X-15543138Y-16269383D01*
X-15350609Y-16428341D01*
X-15149865Y-16581138D01*
X-14934093Y-16733077D01*
X-14696476Y-16889461D01*
X-14430200Y-17055595D01*
X-14298083Y-17135627D01*
X-13737799Y-17454683D01*
X-13139363Y-17761660D01*
X-12505435Y-18055729D01*
X-11838672Y-18336059D01*
X-11141735Y-18601822D01*
X-10417282Y-18852187D01*
X-9667973Y-19086326D01*
X-8896467Y-19303408D01*
X-8105424Y-19502604D01*
X-7297501Y-19683085D01*
X-6475359Y-19844021D01*
X-5641657Y-19984582D01*
X-4799054Y-20103939D01*
X-4771965Y-20107400D01*
X-4510323Y-20138395D01*
X-4238730Y-20165808D01*
X-3952029Y-20189987D01*
X-3645064Y-20211280D01*
X-3312679Y-20230034D01*
X-2949718Y-20246598D01*
X-2551024Y-20261319D01*
X-2434166Y-20265099D01*
X-2342867Y-20267008D01*
X-2213870Y-20268297D01*
X-2051808Y-20269004D01*
X-1861312Y-20269166D01*
X-1647013Y-20268822D01*
X-1413542Y-20268007D01*
X-1165532Y-20266759D01*
X-907613Y-20265116D01*
X-644416Y-20263114D01*
X-380574Y-20260792D01*
X-120717Y-20258185D01*
X130524Y-20255333D01*
X368516Y-20252271D01*
X588628Y-20249037D01*
X786230Y-20245669D01*
X956690Y-20242203D01*
X1095376Y-20238677D01*
X1174750Y-20236054D01*
X1840071Y-20208540D01*
X2463743Y-20178323D01*
X3046367Y-20145355D01*
X3588544Y-20109587D01*
X4090876Y-20070972D01*
X4553962Y-20029462D01*
X4978404Y-19985009D01*
X5364803Y-19937566D01*
X5713760Y-19887083D01*
X5863167Y-19862607D01*
X6062636Y-19827146D01*
X6292797Y-19783795D01*
X6543207Y-19734673D01*
X6803426Y-19681897D01*
X7063009Y-19627584D01*
X7311517Y-19573850D01*
X7535334Y-19523545D01*
X8397991Y-19312706D01*
X9222232Y-19085834D01*
X10008966Y-18842561D01*
X10759103Y-18582520D01*
X11473554Y-18305346D01*
X12153229Y-18010669D01*
X12799039Y-17698125D01*
X13411894Y-17367345D01*
X13992705Y-17017963D01*
X14372167Y-16767964D01*
X14716487Y-16526440D01*
X15025068Y-16296390D01*
X15301734Y-16074219D01*
X15550307Y-15856331D01*
X15774610Y-15639133D01*
X15978464Y-15419029D01*
X16165692Y-15192423D01*
X16340117Y-14955722D01*
X16413150Y-14848416D01*
X16499393Y-14714478D01*
X16587615Y-14569939D01*
X16673292Y-14422873D01*
X16751898Y-14281359D01*
X16818909Y-14153473D01*
X16869801Y-14047291D01*
X16892393Y-13992941D01*
X16915687Y-13925894D01*
X16922949Y-13885579D01*
X16915193Y-13859981D01*
X16904649Y-13847577D01*
X16881140Y-13835959D01*
X16844557Y-13838164D01*
X16791834Y-13855802D01*
X16719907Y-13890486D01*
X16625711Y-13943825D01*
X16506180Y-14017430D01*
X16358250Y-14112913D01*
X16198932Y-14218459D01*
X15842183Y-14451406D01*
X15498177Y-14664323D01*
X15158274Y-14861850D01*
X14813831Y-15048633D01*
X14456207Y-15229312D01*
X14076761Y-15408532D01*
X13666852Y-15590936D01*
X13553904Y-15639590D01*
X12673777Y-15996131D01*
X11761686Y-16325969D01*
X10818703Y-16628875D01*
X9845899Y-16904618D01*
X8844344Y-17152969D01*
X7815111Y-17373699D01*
X6759269Y-17566576D01*
X5677891Y-17731372D01*
X4572047Y-17867857D01*
X3442809Y-17975800D01*
X2296584Y-18054676D01*
X1959758Y-18071327D01*
X1591042Y-18085697D01*
X1197604Y-18097716D01*
X786609Y-18107316D01*
X365225Y-18114426D01*
X-59381Y-18118977D01*
X-480042Y-18120901D01*
X-889592Y-18120126D01*
X-1280862Y-18116585D01*
X-1646686Y-18110208D01*
X-1979897Y-18100925D01*
X-2084916Y-18097078D01*
X-3170731Y-18042981D01*
X-4238665Y-17966674D01*
X-5286779Y-17868486D01*
X-6313131Y-17748748D01*
X-7315783Y-17607788D01*
X-8292792Y-17445938D01*
X-9242220Y-17263526D01*
X-10162126Y-17060882D01*
X-11050569Y-16838336D01*
X-11905610Y-16596219D01*
X-12725307Y-16334859D01*
X-12989547Y-16243802D01*
X-13443649Y-16079693D01*
X-13867926Y-15916249D01*
X-14271329Y-15749345D01*
X-14662810Y-15574856D01*
X-15051318Y-15388660D01*
X-15445804Y-15186632D01*
X-15855218Y-14964648D01*
X-16243826Y-14744407D01*
X-16417714Y-14645594D01*
X-16584968Y-14553380D01*
X-16740829Y-14470195D01*
X-16880540Y-14398469D01*
X-16999343Y-14340632D01*
X-17092478Y-14299114D01*
X-17155187Y-14276343D01*
X-17165097Y-14273955D01*
X-17208700Y-14271492D01*
X-17227922Y-14289122D01*
X-19284617Y-14289122D01*
X-19318428Y-14256023D01*
X-19752503Y-13812811D01*
X-20168478Y-13369080D01*
X-20561865Y-12929261D01*
X-20928174Y-12497785D01*
X-21262916Y-12079083D01*
X-21386473Y-11916833D01*
X-21714258Y-11455970D01*
X-22034899Y-10957814D01*
X-22345783Y-10427164D01*
X-22644295Y-9868816D01*
X-22927821Y-9287571D01*
X-23193746Y-8688224D01*
X-23339371Y-8332983D01*
X-23408889Y-8152554D01*
X-23485742Y-7943395D01*
X-23566905Y-7714495D01*
X-23649354Y-7474843D01*
X-23730066Y-7233430D01*
X-23806017Y-6999245D01*
X-23874182Y-6781278D01*
X-23931538Y-6588520D01*
X-23958439Y-6492620D01*
X-24049654Y-6127438D01*
X-24127911Y-5747801D01*
X-24193588Y-5350088D01*
X-24247062Y-4930677D01*
X-24288710Y-4485945D01*
X-24318909Y-4012271D01*
X-24338037Y-3506032D01*
X-24346471Y-2963607D01*
X-24346965Y-2762250D01*
X-24340709Y-2180325D01*
X-24322636Y-1636622D01*
X-24292483Y-1128632D01*
X-24277665Y-963083D01*
X-19409434Y-963083D01*
X-19399016Y-1406565D01*
X-19367124Y-1818068D01*
X-19312678Y-2202711D01*
X-19234598Y-2565612D01*
X-19131807Y-2911889D01*
X-19003222Y-3246660D01*
X-18866065Y-3539372D01*
X-18686768Y-3855863D01*
X-18471417Y-4173843D01*
X-18225594Y-4487137D01*
X-17954879Y-4789569D01*
X-17664851Y-5074965D01*
X-17361093Y-5337147D01*
X-17049183Y-5569942D01*
X-17002506Y-5601632D01*
X-16724340Y-5769063D01*
X-16411392Y-5923197D01*
X-16069704Y-6061935D01*
X-15705319Y-6183180D01*
X-15324280Y-6284834D01*
X-14932629Y-6364801D01*
X-14700250Y-6400791D01*
X-14553594Y-6415503D01*
X-14376099Y-6424867D01*
X-14177846Y-6429067D01*
X-13968915Y-6428282D01*
X-13759388Y-6422694D01*
X-13559345Y-6412484D01*
X-13378865Y-6397834D01*
X-13228031Y-6378924D01*
X-13197416Y-6373782D01*
X-12807267Y-6288697D01*
X-12407753Y-6172722D01*
X-12012429Y-6030558D01*
X-11634846Y-5866910D01*
X-11408833Y-5753110D01*
X-11001177Y-5511567D01*
X-10620392Y-5237369D01*
X-10266436Y-4930472D01*
X-9939270Y-4590835D01*
X-9638854Y-4218415D01*
X-9365147Y-3813171D01*
X-9313871Y-3722235D01*
X-3315452Y-3722235D01*
X-3311908Y-3793612D01*
X-3271347Y-3873465D01*
X-3195521Y-3959903D01*
X-3086179Y-4051031D01*
X-2945074Y-4144959D01*
X-2773956Y-4239791D01*
X-2720346Y-4266521D01*
X-2374881Y-4412846D01*
X-2003737Y-4528210D01*
X-1611324Y-4611429D01*
X-1270000Y-4655486D01*
X-1163343Y-4665442D01*
X-1063574Y-4674840D01*
X-983321Y-4682487D01*
X-941916Y-4686516D01*
X-872464Y-4690372D01*
X-767859Y-4692216D01*
X-635225Y-4692230D01*
X-481687Y-4690599D01*
X-314367Y-4687503D01*
X-140391Y-4683127D01*
X33120Y-4677653D01*
X199039Y-4671263D01*
X350245Y-4664140D01*
X479612Y-4656468D01*
X580017Y-4648428D01*
X592667Y-4647147D01*
X932883Y-4605689D01*
X1252400Y-4555457D01*
X1548572Y-4497248D01*
X1818752Y-4431861D01*
X2060292Y-4360095D01*
X2270547Y-4282750D01*
X2446869Y-4200623D01*
X2586612Y-4114514D01*
X2687130Y-4025222D01*
X2698750Y-4011492D01*
X2739042Y-3953065D01*
X2757800Y-3895394D01*
X2762250Y-3820840D01*
X2755942Y-3737222D01*
X2734620Y-3680827D01*
X2719917Y-3661549D01*
X2695921Y-3638729D01*
X2667817Y-3625710D01*
X2625097Y-3620798D01*
X2557253Y-3622301D01*
X2497667Y-3625730D01*
X2395398Y-3637523D01*
X2255251Y-3662278D01*
X2079496Y-3699539D01*
X1870407Y-3748851D01*
X1809750Y-3763867D01*
X1545881Y-3828960D01*
X1316330Y-3883443D01*
X1114705Y-3928318D01*
X934617Y-3964588D01*
X769672Y-3993252D01*
X613480Y-4015314D01*
X459650Y-4031775D01*
X301788Y-4043636D01*
X133505Y-4051899D01*
X-51591Y-4057566D01*
X-66599Y-4057921D01*
X-313874Y-4061012D01*
X-541387Y-4057571D01*
X-757279Y-4046620D01*
X-969690Y-4027187D01*
X-1186761Y-3998296D01*
X-1416631Y-3958973D01*
X-1667442Y-3908243D01*
X-1947333Y-3845131D01*
X-2053166Y-3820057D01*
X-2275669Y-3767669D01*
X-2463822Y-3725443D01*
X-2624049Y-3692161D01*
X-2762774Y-3666604D01*
X-2886421Y-3647552D01*
X-3001415Y-3633785D01*
X-3066228Y-3627780D01*
X-3151301Y-3621727D01*
X-3205687Y-3622137D01*
X-3240770Y-3630790D01*
X-3267936Y-3649464D01*
X-3280229Y-3661229D01*
X-3315452Y-3722235D01*
X-9313871Y-3722235D01*
X-9118109Y-3375061D01*
X-9101611Y-3342761D01*
X-9011376Y-3156056D01*
X-8934587Y-2975838D01*
X-8870403Y-2797047D01*
X-8817983Y-2614621D01*
X-8776489Y-2423500D01*
X-8745078Y-2218623D01*
X-8722912Y-1994931D01*
X-8709151Y-1747361D01*
X-8702953Y-1470855D01*
X-8703479Y-1160351D01*
X-8704263Y-1109564D01*
X8596289Y-1109564D01*
X8606958Y-1522047D01*
X8640326Y-1924513D01*
X8696721Y-2309138D01*
X8732642Y-2487737D01*
X8781572Y-2692358D01*
X8833445Y-2870422D01*
X8893727Y-3037633D01*
X8967886Y-3209691D01*
X9027219Y-3333800D01*
X9239572Y-3721139D01*
X9489090Y-4099298D01*
X9770736Y-4462439D01*
X10079476Y-4804727D01*
X10410271Y-5120326D01*
X10758087Y-5403399D01*
X10903418Y-5507994D01*
X11294080Y-5757392D01*
X11689179Y-5966395D01*
X12093449Y-6136754D01*
X12511626Y-6270217D01*
X12948445Y-6368534D01*
X13408642Y-6433452D01*
X13409084Y-6433498D01*
X13522831Y-6441342D01*
X13668645Y-6445595D01*
X13836433Y-6446486D01*
X14016102Y-6444250D01*
X14197558Y-6439118D01*
X14370708Y-6431323D01*
X14525459Y-6421096D01*
X14651719Y-6408671D01*
X14685509Y-6404114D01*
X15167809Y-6312259D01*
X15632638Y-6182514D01*
X16078447Y-6016170D01*
X16503688Y-5814516D01*
X16906814Y-5578843D01*
X17286278Y-5310440D01*
X17640532Y-5010599D01*
X17968027Y-4680608D01*
X18267218Y-4321758D01*
X18536555Y-3935340D01*
X18774491Y-3522643D01*
X18979479Y-3084958D01*
X19123102Y-2704766D01*
X19248717Y-2269825D01*
X19333698Y-1829842D01*
X19379083Y-1387238D01*
X19385907Y-944435D01*
X19355209Y-503855D01*
X19288024Y-67920D01*
X19185390Y360948D01*
X19048343Y780327D01*
X18877919Y1187795D01*
X18675157Y1580930D01*
X18441091Y1957311D01*
X18176759Y2314514D01*
X17883199Y2650119D01*
X17561445Y2961704D01*
X17212536Y3246845D01*
X16837508Y3503122D01*
X16437397Y3728113D01*
X16351250Y3770693D01*
X16020640Y3910665D01*
X15659673Y4027265D01*
X15273698Y4119870D01*
X14868060Y4187855D01*
X14448106Y4230596D01*
X14019182Y4247471D01*
X13586636Y4237853D01*
X13155814Y4201120D01*
X12928373Y4170192D01*
X12528983Y4093419D01*
X12150571Y3988621D01*
X11788403Y3853531D01*
X11437749Y3685882D01*
X11093874Y3483407D01*
X10752047Y3243839D01*
X10407534Y2964912D01*
X10401765Y2959936D01*
X10132142Y2710974D01*
X9876114Y2442729D01*
X9637533Y2160565D01*
X9420249Y1869845D01*
X9228114Y1575932D01*
X9064979Y1284189D01*
X8934694Y999981D01*
X8871926Y829368D01*
X8774029Y484118D01*
X8697188Y109779D01*
X8641732Y-285829D01*
X8607990Y-694884D01*
X8596289Y-1109564D01*
X-8704263Y-1109564D01*
X-8706526Y-963083D01*
X-8713328Y-694126D01*
X-8722919Y-460390D01*
X-8735964Y-254815D01*
X-8753130Y-70342D01*
X-8775081Y100090D01*
X-8802486Y263539D01*
X-8836009Y427065D01*
X-8838945Y440224D01*
X-8920915Y752419D01*
X-9024443Y1049144D01*
X-9152271Y1335108D01*
X-9307142Y1615022D01*
X-9491799Y1893598D01*
X-9708984Y2175545D01*
X-9961442Y2465574D01*
X-10110955Y2624667D01*
X-10450914Y2954691D01*
X-10797219Y3243814D01*
X-11152239Y3493280D01*
X-11518342Y3704334D01*
X-11897896Y3878220D01*
X-12293268Y4016183D01*
X-12706828Y4119468D01*
X-13071253Y4180504D01*
X-13353923Y4209216D01*
X-13664709Y4225211D01*
X-13991394Y4228636D01*
X-14321760Y4219637D01*
X-14643591Y4198359D01*
X-14944670Y4164949D01*
X-14996583Y4157529D01*
X-15474935Y4067059D01*
X-15930363Y3941228D01*
X-16362406Y3780351D01*
X-16770602Y3584744D01*
X-17154490Y3354722D01*
X-17513608Y3090600D01*
X-17847494Y2792694D01*
X-18155689Y2461319D01*
X-18437729Y2096791D01*
X-18693153Y1699424D01*
X-18756965Y1587500D01*
X-18914349Y1293276D01*
X-19045865Y1020840D01*
X-19153504Y762407D01*
X-19239256Y510197D01*
X-19305112Y256426D01*
X-19353063Y-6688D01*
X-19385099Y-286928D01*
X-19403213Y-592077D01*
X-19409395Y-929917D01*
X-19409434Y-963083D01*
X-24277665Y-963083D01*
X-24249984Y-653851D01*
X-24194878Y-209772D01*
X-24126900Y206110D01*
X-24045786Y596301D01*
X-23957320Y941917D01*
X-23710319Y1750735D01*
X-23431148Y2532914D01*
X-23118732Y3290546D01*
X-22771995Y4025723D01*
X-22389860Y4740534D01*
X-21971251Y5437071D01*
X-21515092Y6117424D01*
X-21020306Y6783686D01*
X-20821637Y7033975D01*
X-20613571Y7287443D01*
X-20407059Y7530351D01*
X-20195914Y7769510D01*
X-19973946Y8011732D01*
X-19734970Y8263829D01*
X-19472796Y8532613D01*
X-19326012Y8680468D01*
X-18872498Y9126363D01*
X-18433448Y9539993D01*
X-18002999Y9926230D01*
X-17575291Y10289943D01*
X-17144464Y10636005D01*
X-16704658Y10969286D01*
X-16250012Y11294657D01*
X-15866253Y11556150D01*
X-15643586Y11703519D01*
X-15429604Y11842342D01*
X-15220490Y11974755D01*
X-15012426Y12102896D01*
X-14801595Y12228902D01*
X-14584179Y12354909D01*
X-14356360Y12483056D01*
X-14114320Y12615479D01*
X-13854242Y12754316D01*
X-13572309Y12901703D01*
X-13264701Y13059778D01*
X-12927602Y13230677D01*
X-12557194Y13416538D01*
X-12425271Y13482381D01*
X-12223801Y13582868D01*
X-12033900Y13677678D01*
X-11858904Y13765140D01*
X-11702149Y13843581D01*
X-11566971Y13911331D01*
X-11456707Y13966715D01*
X-11374693Y14008064D01*
X-11324264Y14033705D01*
X-11308650Y14041961D01*
X-11309164Y14064513D01*
X-11315472Y14122629D01*
X-11326650Y14210076D01*
X-11341771Y14320621D01*
X-11359909Y14448033D01*
X-11380139Y14586077D01*
X-11401534Y14728523D01*
X-11423170Y14869137D01*
X-11444119Y15001687D01*
X-11463457Y15119939D01*
X-11480257Y15217662D01*
X-11493594Y15288623D01*
X-11494475Y15292917D01*
X-11560298Y15578008D01*
X-11645843Y15894849D01*
X-11749450Y16238658D01*
X-11869454Y16604651D01*
X-12004196Y16988044D01*
X-12152012Y17384052D01*
X-12311240Y17787893D01*
X-12480218Y18194782D01*
X-12593925Y18457334D01*
X-12666520Y18618326D01*
X-12755016Y18808261D01*
X-12855834Y19019925D01*
X-12965397Y19246104D01*
X-13080129Y19479585D01*
X-13196453Y19713153D01*
X-13310790Y19939596D01*
X-13419565Y20151699D01*
X-13519200Y20342249D01*
X-13606118Y20504032D01*
X-13633045Y20552834D01*
X-13790906Y20832635D01*
X-13943131Y21094984D01*
X-14087957Y21337110D01*
X-14223620Y21556243D01*
X-14348355Y21749611D01*
X-14460399Y21914445D01*
X-14557987Y22047973D01*
X-14639356Y22147426D01*
X-14667502Y22177589D01*
X-14744561Y22250133D01*
X-14818203Y22303783D01*
X-14897583Y22341930D01*
X-14991856Y22367966D01*
X-15110177Y22385280D01*
X-15260395Y22397185D01*
X-15502161Y22421055D01*
X-15711636Y22462799D01*
X-15896179Y22525457D01*
X-16063147Y22612069D01*
X-16219900Y22725674D01*
X-16353780Y22848925D01*
X-16518210Y23042956D01*
X-16644933Y23255207D01*
X-16733020Y23483452D01*
X-16781540Y23725464D01*
X-16791460Y23897167D01*
X-16774584Y24135632D01*
X-16721701Y24353484D01*
X-16631218Y24554587D01*
X-16501541Y24742808D01*
X-16393986Y24861578D01*
X-16196671Y25035069D01*
X-15990965Y25167274D01*
X-15777082Y25258097D01*
X-15555233Y25307439D01*
X-15401917Y25317244D01*
X-15269508Y25314111D01*
X-15269508Y25314111D01*
G37*
X-15269508Y25314111D02*
X-15157006Y25301725D01*
X-15050950Y25276807D01*
X-14937877Y25236079D01*
X-14804327Y25176262D01*
X-14784916Y25166989D01*
X-14559200Y25038672D01*
X-14360796Y24884994D01*
X-14192709Y24709432D01*
X-14057943Y24515466D01*
X-13959503Y24306575D01*
X-13915457Y24160383D01*
X-13894851Y24022140D01*
X-13889672Y23859544D01*
X-13899261Y23687399D01*
X-13922959Y23520509D01*
X-13948837Y23410334D01*
X-13976319Y23327432D01*
X-14017130Y23220743D01*
X-14065650Y23104333D01*
X-14113749Y22997584D01*
X-14165691Y22882009D01*
X-14205116Y22778109D01*
X-14231212Y22680925D01*
X-14243165Y22585501D01*
X-14240161Y22486878D01*
X-14221389Y22380100D01*
X-14186034Y22260209D01*
X-14133284Y22122247D01*
X-14062326Y21961256D01*
X-13972346Y21772280D01*
X-13883165Y21591689D01*
X-13637065Y21106923D01*
X-13378715Y20614792D01*
X-13110338Y20118940D01*
X-12834153Y19623009D01*
X-12552384Y19130641D01*
X-12267251Y18645479D01*
X-11980975Y18171165D01*
X-11695777Y17711342D01*
X-11413880Y17269652D01*
X-11137504Y16849738D01*
X-10868871Y16455242D01*
X-10610202Y16089806D01*
X-10363718Y15757074D01*
X-10183869Y15525750D01*
X-10080622Y15400336D01*
X-9972246Y15276118D01*
X-9863659Y15158093D01*
X-9759777Y15051258D01*
X-9665517Y14960608D01*
X-9585794Y14891139D01*
X-9525525Y14847848D01*
X-9508092Y14839031D01*
X-9433927Y14823926D01*
X-9320219Y14822808D01*
X-9166917Y14835684D01*
X-8973971Y14862565D01*
X-8741331Y14903458D01*
X-8468948Y14958372D01*
X-8156772Y15027316D01*
X-7804753Y15110298D01*
X-7498992Y15185651D01*
X-6972055Y15315026D01*
X-6478397Y15430376D01*
X-6011725Y15532710D01*
X-5565746Y15623035D01*
X-5134164Y15702362D01*
X-4710686Y15771698D01*
X-4289019Y15832053D01*
X-3862868Y15884436D01*
X-3425939Y15929855D01*
X-2971939Y15969320D01*
X-2494573Y16003839D01*
X-2328333Y16014472D01*
X-2161918Y16023180D01*
X-1958657Y16031132D01*
X-1724030Y16038281D01*
X-1463519Y16044582D01*
X-1182604Y16049989D01*
X-886767Y16054456D01*
X-581488Y16057939D01*
X-272249Y16060390D01*
X35470Y16061765D01*
X336187Y16062018D01*
X624421Y16061103D01*
X894692Y16058974D01*
X1141519Y16055586D01*
X1359420Y16050893D01*
X1502834Y16046406D01*
X2060904Y16022265D01*
X2589667Y15991593D01*
X3095643Y15953448D01*
X3585350Y15906891D01*
X4065307Y15850981D01*
X4542035Y15784776D01*
X5022052Y15707336D01*
X5511878Y15617720D01*
X6018032Y15514987D01*
X6547033Y15398197D01*
X7105400Y15266407D01*
X7387167Y15197196D01*
X7766612Y15104551D01*
X8106273Y15025063D01*
X8406576Y14958651D01*
X8667948Y14905237D01*
X8890816Y14864740D01*
X9075607Y14837082D01*
X9222747Y14822183D01*
X9332663Y14819964D01*
X9385797Y14825550D01*
X9448085Y14851773D01*
X9531238Y14909381D01*
X9631565Y14995270D01*
X9745377Y15106340D01*
X9840697Y15207973D01*
X10020188Y15415441D01*
X10215482Y15658563D01*
X10424802Y15934482D01*
X10646371Y16240341D01*
X10878414Y16573285D01*
X11119152Y16930456D01*
X11366809Y17308998D01*
X11619609Y17706055D01*
X11875774Y18118769D01*
X12133529Y18544284D01*
X12391095Y18979743D01*
X12646697Y19422291D01*
X12898558Y19869069D01*
X13144900Y20317223D01*
X13383947Y20763894D01*
X13613923Y21206226D01*
X13797045Y21568834D01*
X13895960Y21769447D01*
X13976392Y21937638D01*
X14040110Y22078158D01*
X14088878Y22195762D01*
X14124465Y22295204D01*
X14148637Y22381235D01*
X14163161Y22458611D01*
X14169802Y22532084D01*
X14170739Y22574250D01*
X14169383Y22638606D01*
X14163149Y22693611D01*
X14149014Y22749442D01*
X14123954Y22816281D01*
X14084946Y22904307D01*
X14051286Y22976417D01*
X13970623Y23156121D01*
X13910299Y23311793D01*
X13866813Y23454383D01*
X13836667Y23594843D01*
X13822152Y23693520D01*
X13812444Y23932135D01*
X13843558Y24160255D01*
X13915065Y24376898D01*
X14026536Y24581077D01*
X14177541Y24771808D01*
X14367651Y24948106D01*
X14369770Y24949811D01*
X14583196Y25098960D01*
X14802749Y25207398D01*
X15032415Y25276693D01*
X15276182Y25308412D01*
X15282334Y25308730D01*
X15521171Y25303704D01*
X15739015Y25262818D01*
X15939318Y25184770D01*
X16125528Y25068265D01*
X16280083Y24933288D01*
X16434635Y24750033D01*
X16554193Y24543090D01*
X16638379Y24313138D01*
X16650178Y24267584D01*
X16671700Y24141786D01*
X16683626Y23990820D01*
X16685923Y23829769D01*
X16678557Y23673719D01*
X16661492Y23537755D01*
X16651955Y23492426D01*
X16574687Y23259355D01*
X16463288Y23047882D01*
X16320375Y22861302D01*
X16148567Y22702913D01*
X15950483Y22576013D01*
X15906750Y22554130D01*
X15778464Y22499469D01*
X15646880Y22458339D01*
X15501583Y22428453D01*
X15332155Y22407525D01*
X15189638Y22396736D01*
X15066880Y22388245D01*
X14976406Y22378948D01*
X14908180Y22366989D01*
X14852164Y22350512D01*
X14798322Y22327662D01*
X14787301Y22322344D01*
X14722690Y22285821D01*
X14658424Y22238326D01*
X14592077Y22176699D01*
X14521222Y22097775D01*
X14443430Y21998394D01*
X14356276Y21875393D01*
X14257332Y21725611D01*
X14144171Y21545884D01*
X14014366Y21333050D01*
X13965261Y21251334D01*
X13684204Y20768858D01*
X13410523Y20272822D01*
X13145936Y19767253D01*
X12892161Y19256181D01*
X12650915Y18743635D01*
X12423917Y18233645D01*
X12212886Y17730240D01*
X12019539Y17237448D01*
X11845594Y16759301D01*
X11692770Y16299825D01*
X11562785Y15863052D01*
X11457356Y15453010D01*
X11418502Y15278849D01*
X11407138Y15218766D01*
X11391705Y15128115D01*
X11373236Y15013850D01*
X11352763Y14882923D01*
X11331318Y14742288D01*
X11309933Y14598896D01*
X11289642Y14459701D01*
X11271475Y14331656D01*
X11256465Y14221712D01*
X11245645Y14136824D01*
X11240047Y14083943D01*
X11239500Y14073147D01*
X11247213Y14060850D01*
X11271899Y14041354D01*
X11315881Y14013428D01*
X11381479Y13975842D01*
X11471015Y13927365D01*
X11586811Y13866766D01*
X11731189Y13792813D01*
X11906469Y13704275D01*
X12114973Y13599922D01*
X12359024Y13478522D01*
X12387792Y13464247D01*
X12752529Y13282587D01*
X13083015Y13116358D01*
X13383439Y12963267D01*
X13657992Y12821018D01*
X13910866Y12687315D01*
X14146250Y12559864D01*
X14368337Y12436369D01*
X14581315Y12314536D01*
X14789378Y12192069D01*
X14996714Y12066673D01*
X15207515Y11936053D01*
X15398750Y11815259D01*
X16092135Y11353311D01*
X16777451Y10856128D01*
X17450649Y10327456D01*
X18107684Y9771043D01*
X18744507Y9190633D01*
X19357070Y8589975D01*
X19941328Y7972815D01*
X20493232Y7342900D01*
X21008735Y6703976D01*
X21216536Y6429645D01*
X21680873Y5771830D01*
X22109507Y5096455D01*
X22503544Y4401322D01*
X22864086Y3684234D01*
X23192237Y2942993D01*
X23489102Y2175403D01*
X23755783Y1379264D01*
X23760130Y1365250D01*
X23859102Y1028990D01*
X23945604Y697472D01*
X24020320Y365581D01*
X24083937Y28205D01*
X24137138Y-319771D01*
X24180608Y-683461D01*
X24215033Y-1067978D01*
X24241097Y-1478436D01*
X24259484Y-1919949D01*
X24270881Y-2397631D01*
X24271777Y-2455333D01*
X24274359Y-3061579D01*
X24263430Y-3630796D01*
X24238664Y-4166181D01*
X24199734Y-4670934D01*
X24146312Y-5148253D01*
X24078070Y-5601335D01*
X23994683Y-6033381D01*
X23895821Y-6447589D01*
X23843898Y-6637083D01*
X23610703Y-7398061D01*
X23354457Y-8126097D01*
X23073048Y-8825041D01*
X22764367Y-9498740D01*
X22426303Y-10151045D01*
X22056746Y-10785804D01*
X21653587Y-11406867D01*
X21214713Y-12018082D01*
X20738016Y-12623299D01*
X20247122Y-13197416D01*
X19559737Y-13941265D01*
X18847986Y-14651031D01*
X18111746Y-15326775D01*
X17350899Y-15968555D01*
X16565323Y-16576433D01*
X15754897Y-17150469D01*
X14919501Y-17690721D01*
X14059014Y-18197251D01*
X13173315Y-18670118D01*
X12262283Y-19109383D01*
X11325799Y-19515104D01*
X10363740Y-19887343D01*
X9375986Y-20226160D01*
X8362417Y-20531614D01*
X7322911Y-20803765D01*
X6257349Y-21042674D01*
X5165608Y-21248400D01*
X4047570Y-21421003D01*
X3577167Y-21482756D01*
X2527064Y-21594909D01*
X1473176Y-21670369D01*
X421962Y-21708851D01*
X-620116Y-21710070D01*
X-1201037Y-21694227D01*
X-2306455Y-21631742D01*
X-3409714Y-21528099D01*
X-4508813Y-21383767D01*
X-5601749Y-21199217D01*
X-6686520Y-20974916D01*
X-7761125Y-20711333D01*
X-8823562Y-20408938D01*
X-9871828Y-20068200D01*
X-10903923Y-19689588D01*
X-11917844Y-19273571D01*
X-12350750Y-19081939D01*
X-12466516Y-19028524D01*
X-12608790Y-18961267D01*
X-12770999Y-18883412D01*
X-12946571Y-18798204D01*
X-13128933Y-18708887D01*
X-13311513Y-18618704D01*
X-13487739Y-18530902D01*
X-13651039Y-18448723D01*
X-13794839Y-18375412D01*
X-13912569Y-18314213D01*
X-13987516Y-18273984D01*
X-14484517Y-17996077D01*
X-14943163Y-17730606D01*
X-15365209Y-17476477D01*
X-15752414Y-17232595D01*
X-16106534Y-16997867D01*
X-16429327Y-16771199D01*
X-16585286Y-16656225D01*
X-17033684Y-16309190D01*
X-17490918Y-15935047D01*
X-17952499Y-15538227D01*
X-18413937Y-15123162D01*
X-18870743Y-14694284D01*
X-19284617Y-14289122D01*
X-17227922Y-14289122D01*
X-17222761Y-14330900D01*
X-17193217Y-14400882D01*
X-17165004Y-14455811D01*
X-17079735Y-14597940D01*
X-16963456Y-14763534D01*
X-16818414Y-14949864D01*
X-16646853Y-15154198D01*
X-16451020Y-15373806D01*
X-16233160Y-15605959D01*
X-16139583Y-15702506D01*
X-15930810Y-15911769D01*
X-15734267Y-16098960D01*
X-15543138Y-16269383D01*
X-15350609Y-16428341D01*
X-15149865Y-16581138D01*
X-14934093Y-16733077D01*
X-14696476Y-16889461D01*
X-14430200Y-17055595D01*
X-14298083Y-17135627D01*
X-13737799Y-17454683D01*
X-13139363Y-17761660D01*
X-12505435Y-18055729D01*
X-11838672Y-18336059D01*
X-11141735Y-18601822D01*
X-10417282Y-18852187D01*
X-9667973Y-19086326D01*
X-8896467Y-19303408D01*
X-8105424Y-19502604D01*
X-7297501Y-19683085D01*
X-6475359Y-19844021D01*
X-5641657Y-19984582D01*
X-4799054Y-20103939D01*
X-4771965Y-20107400D01*
X-4510323Y-20138395D01*
X-4238730Y-20165808D01*
X-3952029Y-20189987D01*
X-3645064Y-20211280D01*
X-3312679Y-20230034D01*
X-2949718Y-20246598D01*
X-2551024Y-20261319D01*
X-2434166Y-20265099D01*
X-2342867Y-20267008D01*
X-2213870Y-20268297D01*
X-2051808Y-20269004D01*
X-1861312Y-20269166D01*
X-1647013Y-20268822D01*
X-1413542Y-20268007D01*
X-1165532Y-20266759D01*
X-907613Y-20265116D01*
X-644416Y-20263114D01*
X-380574Y-20260792D01*
X-120717Y-20258185D01*
X130524Y-20255333D01*
X368516Y-20252271D01*
X588628Y-20249037D01*
X786230Y-20245669D01*
X956690Y-20242203D01*
X1095376Y-20238677D01*
X1174750Y-20236054D01*
X1840071Y-20208540D01*
X2463743Y-20178323D01*
X3046367Y-20145355D01*
X3588544Y-20109587D01*
X4090876Y-20070972D01*
X4553962Y-20029462D01*
X4978404Y-19985009D01*
X5364803Y-19937566D01*
X5713760Y-19887083D01*
X5863167Y-19862607D01*
X6062636Y-19827146D01*
X6292797Y-19783795D01*
X6543207Y-19734673D01*
X6803426Y-19681897D01*
X7063009Y-19627584D01*
X7311517Y-19573850D01*
X7535334Y-19523545D01*
X8397991Y-19312706D01*
X9222232Y-19085834D01*
X10008966Y-18842561D01*
X10759103Y-18582520D01*
X11473554Y-18305346D01*
X12153229Y-18010669D01*
X12799039Y-17698125D01*
X13411894Y-17367345D01*
X13992705Y-17017963D01*
X14372167Y-16767964D01*
X14716487Y-16526440D01*
X15025068Y-16296390D01*
X15301734Y-16074219D01*
X15550307Y-15856331D01*
X15774610Y-15639133D01*
X15978464Y-15419029D01*
X16165692Y-15192423D01*
X16340117Y-14955722D01*
X16413150Y-14848416D01*
X16499393Y-14714478D01*
X16587615Y-14569939D01*
X16673292Y-14422873D01*
X16751898Y-14281359D01*
X16818909Y-14153473D01*
X16869801Y-14047291D01*
X16892393Y-13992941D01*
X16915687Y-13925894D01*
X16922949Y-13885579D01*
X16915193Y-13859981D01*
X16904649Y-13847577D01*
X16881140Y-13835959D01*
X16844557Y-13838164D01*
X16791834Y-13855802D01*
X16719907Y-13890486D01*
X16625711Y-13943825D01*
X16506180Y-14017430D01*
X16358250Y-14112913D01*
X16198932Y-14218459D01*
X15842183Y-14451406D01*
X15498177Y-14664323D01*
X15158274Y-14861850D01*
X14813831Y-15048633D01*
X14456207Y-15229312D01*
X14076761Y-15408532D01*
X13666852Y-15590936D01*
X13553904Y-15639590D01*
X12673777Y-15996131D01*
X11761686Y-16325969D01*
X10818703Y-16628875D01*
X9845899Y-16904618D01*
X8844344Y-17152969D01*
X7815111Y-17373699D01*
X6759269Y-17566576D01*
X5677891Y-17731372D01*
X4572047Y-17867857D01*
X3442809Y-17975800D01*
X2296584Y-18054676D01*
X1959758Y-18071327D01*
X1591042Y-18085697D01*
X1197604Y-18097716D01*
X786609Y-18107316D01*
X365225Y-18114426D01*
X-59381Y-18118977D01*
X-480042Y-18120901D01*
X-889592Y-18120126D01*
X-1280862Y-18116585D01*
X-1646686Y-18110208D01*
X-1979897Y-18100925D01*
X-2084916Y-18097078D01*
X-3170731Y-18042981D01*
X-4238665Y-17966674D01*
X-5286779Y-17868486D01*
X-6313131Y-17748748D01*
X-7315783Y-17607788D01*
X-8292792Y-17445938D01*
X-9242220Y-17263526D01*
X-10162126Y-17060882D01*
X-11050569Y-16838336D01*
X-11905610Y-16596219D01*
X-12725307Y-16334859D01*
X-12989547Y-16243802D01*
X-13443649Y-16079693D01*
X-13867926Y-15916249D01*
X-14271329Y-15749345D01*
X-14662810Y-15574856D01*
X-15051318Y-15388660D01*
X-15445804Y-15186632D01*
X-15855218Y-14964648D01*
X-16243826Y-14744407D01*
X-16417714Y-14645594D01*
X-16584968Y-14553380D01*
X-16740829Y-14470195D01*
X-16880540Y-14398469D01*
X-16999343Y-14340632D01*
X-17092478Y-14299114D01*
X-17155187Y-14276343D01*
X-17165097Y-14273955D01*
X-17208700Y-14271492D01*
X-17227922Y-14289122D01*
X-19284617Y-14289122D01*
X-19318428Y-14256023D01*
X-19752503Y-13812811D01*
X-20168478Y-13369080D01*
X-20561865Y-12929261D01*
X-20928174Y-12497785D01*
X-21262916Y-12079083D01*
X-21386473Y-11916833D01*
X-21714258Y-11455970D01*
X-22034899Y-10957814D01*
X-22345783Y-10427164D01*
X-22644295Y-9868816D01*
X-22927821Y-9287571D01*
X-23193746Y-8688224D01*
X-23339371Y-8332983D01*
X-23408889Y-8152554D01*
X-23485742Y-7943395D01*
X-23566905Y-7714495D01*
X-23649354Y-7474843D01*
X-23730066Y-7233430D01*
X-23806017Y-6999245D01*
X-23874182Y-6781278D01*
X-23931538Y-6588520D01*
X-23958439Y-6492620D01*
X-24049654Y-6127438D01*
X-24127911Y-5747801D01*
X-24193588Y-5350088D01*
X-24247062Y-4930677D01*
X-24288710Y-4485945D01*
X-24318909Y-4012271D01*
X-24338037Y-3506032D01*
X-24346471Y-2963607D01*
X-24346965Y-2762250D01*
X-24340709Y-2180325D01*
X-24322636Y-1636622D01*
X-24292483Y-1128632D01*
X-24277665Y-963083D01*
X-19409434Y-963083D01*
X-19399016Y-1406565D01*
X-19367124Y-1818068D01*
X-19312678Y-2202711D01*
X-19234598Y-2565612D01*
X-19131807Y-2911889D01*
X-19003222Y-3246660D01*
X-18866065Y-3539372D01*
X-18686768Y-3855863D01*
X-18471417Y-4173843D01*
X-18225594Y-4487137D01*
X-17954879Y-4789569D01*
X-17664851Y-5074965D01*
X-17361093Y-5337147D01*
X-17049183Y-5569942D01*
X-17002506Y-5601632D01*
X-16724340Y-5769063D01*
X-16411392Y-5923197D01*
X-16069704Y-6061935D01*
X-15705319Y-6183180D01*
X-15324280Y-6284834D01*
X-14932629Y-6364801D01*
X-14700250Y-6400791D01*
X-14553594Y-6415503D01*
X-14376099Y-6424867D01*
X-14177846Y-6429067D01*
X-13968915Y-6428282D01*
X-13759388Y-6422694D01*
X-13559345Y-6412484D01*
X-13378865Y-6397834D01*
X-13228031Y-6378924D01*
X-13197416Y-6373782D01*
X-12807267Y-6288697D01*
X-12407753Y-6172722D01*
X-12012429Y-6030558D01*
X-11634846Y-5866910D01*
X-11408833Y-5753110D01*
X-11001177Y-5511567D01*
X-10620392Y-5237369D01*
X-10266436Y-4930472D01*
X-9939270Y-4590835D01*
X-9638854Y-4218415D01*
X-9365147Y-3813171D01*
X-9313871Y-3722235D01*
X-3315452Y-3722235D01*
X-3311908Y-3793612D01*
X-3271347Y-3873465D01*
X-3195521Y-3959903D01*
X-3086179Y-4051031D01*
X-2945074Y-4144959D01*
X-2773956Y-4239791D01*
X-2720346Y-4266521D01*
X-2374881Y-4412846D01*
X-2003737Y-4528210D01*
X-1611324Y-4611429D01*
X-1270000Y-4655486D01*
X-1163343Y-4665442D01*
X-1063574Y-4674840D01*
X-983321Y-4682487D01*
X-941916Y-4686516D01*
X-872464Y-4690372D01*
X-767859Y-4692216D01*
X-635225Y-4692230D01*
X-481687Y-4690599D01*
X-314367Y-4687503D01*
X-140391Y-4683127D01*
X33120Y-4677653D01*
X199039Y-4671263D01*
X350245Y-4664140D01*
X479612Y-4656468D01*
X580017Y-4648428D01*
X592667Y-4647147D01*
X932883Y-4605689D01*
X1252400Y-4555457D01*
X1548572Y-4497248D01*
X1818752Y-4431861D01*
X2060292Y-4360095D01*
X2270547Y-4282750D01*
X2446869Y-4200623D01*
X2586612Y-4114514D01*
X2687130Y-4025222D01*
X2698750Y-4011492D01*
X2739042Y-3953065D01*
X2757800Y-3895394D01*
X2762250Y-3820840D01*
X2755942Y-3737222D01*
X2734620Y-3680827D01*
X2719917Y-3661549D01*
X2695921Y-3638729D01*
X2667817Y-3625710D01*
X2625097Y-3620798D01*
X2557253Y-3622301D01*
X2497667Y-3625730D01*
X2395398Y-3637523D01*
X2255251Y-3662278D01*
X2079496Y-3699539D01*
X1870407Y-3748851D01*
X1809750Y-3763867D01*
X1545881Y-3828960D01*
X1316330Y-3883443D01*
X1114705Y-3928318D01*
X934617Y-3964588D01*
X769672Y-3993252D01*
X613480Y-4015314D01*
X459650Y-4031775D01*
X301788Y-4043636D01*
X133505Y-4051899D01*
X-51591Y-4057566D01*
X-66599Y-4057921D01*
X-313874Y-4061012D01*
X-541387Y-4057571D01*
X-757279Y-4046620D01*
X-969690Y-4027187D01*
X-1186761Y-3998296D01*
X-1416631Y-3958973D01*
X-1667442Y-3908243D01*
X-1947333Y-3845131D01*
X-2053166Y-3820057D01*
X-2275669Y-3767669D01*
X-2463822Y-3725443D01*
X-2624049Y-3692161D01*
X-2762774Y-3666604D01*
X-2886421Y-3647552D01*
X-3001415Y-3633785D01*
X-3066228Y-3627780D01*
X-3151301Y-3621727D01*
X-3205687Y-3622137D01*
X-3240770Y-3630790D01*
X-3267936Y-3649464D01*
X-3280229Y-3661229D01*
X-3315452Y-3722235D01*
X-9313871Y-3722235D01*
X-9118109Y-3375061D01*
X-9101611Y-3342761D01*
X-9011376Y-3156056D01*
X-8934587Y-2975838D01*
X-8870403Y-2797047D01*
X-8817983Y-2614621D01*
X-8776489Y-2423500D01*
X-8745078Y-2218623D01*
X-8722912Y-1994931D01*
X-8709151Y-1747361D01*
X-8702953Y-1470855D01*
X-8703479Y-1160351D01*
X-8704263Y-1109564D01*
X8596289Y-1109564D01*
X8606958Y-1522047D01*
X8640326Y-1924513D01*
X8696721Y-2309138D01*
X8732642Y-2487737D01*
X8781572Y-2692358D01*
X8833445Y-2870422D01*
X8893727Y-3037633D01*
X8967886Y-3209691D01*
X9027219Y-3333800D01*
X9239572Y-3721139D01*
X9489090Y-4099298D01*
X9770736Y-4462439D01*
X10079476Y-4804727D01*
X10410271Y-5120326D01*
X10758087Y-5403399D01*
X10903418Y-5507994D01*
X11294080Y-5757392D01*
X11689179Y-5966395D01*
X12093449Y-6136754D01*
X12511626Y-6270217D01*
X12948445Y-6368534D01*
X13408642Y-6433452D01*
X13409084Y-6433498D01*
X13522831Y-6441342D01*
X13668645Y-6445595D01*
X13836433Y-6446486D01*
X14016102Y-6444250D01*
X14197558Y-6439118D01*
X14370708Y-6431323D01*
X14525459Y-6421096D01*
X14651719Y-6408671D01*
X14685509Y-6404114D01*
X15167809Y-6312259D01*
X15632638Y-6182514D01*
X16078447Y-6016170D01*
X16503688Y-5814516D01*
X16906814Y-5578843D01*
X17286278Y-5310440D01*
X17640532Y-5010599D01*
X17968027Y-4680608D01*
X18267218Y-4321758D01*
X18536555Y-3935340D01*
X18774491Y-3522643D01*
X18979479Y-3084958D01*
X19123102Y-2704766D01*
X19248717Y-2269825D01*
X19333698Y-1829842D01*
X19379083Y-1387238D01*
X19385907Y-944435D01*
X19355209Y-503855D01*
X19288024Y-67920D01*
X19185390Y360948D01*
X19048343Y780327D01*
X18877919Y1187795D01*
X18675157Y1580930D01*
X18441091Y1957311D01*
X18176759Y2314514D01*
X17883199Y2650119D01*
X17561445Y2961704D01*
X17212536Y3246845D01*
X16837508Y3503122D01*
X16437397Y3728113D01*
X16351250Y3770693D01*
X16020640Y3910665D01*
X15659673Y4027265D01*
X15273698Y4119870D01*
X14868060Y4187855D01*
X14448106Y4230596D01*
X14019182Y4247471D01*
X13586636Y4237853D01*
X13155814Y4201120D01*
X12928373Y4170192D01*
X12528983Y4093419D01*
X12150571Y3988621D01*
X11788403Y3853531D01*
X11437749Y3685882D01*
X11093874Y3483407D01*
X10752047Y3243839D01*
X10407534Y2964912D01*
X10401765Y2959936D01*
X10132142Y2710974D01*
X9876114Y2442729D01*
X9637533Y2160565D01*
X9420249Y1869845D01*
X9228114Y1575932D01*
X9064979Y1284189D01*
X8934694Y999981D01*
X8871926Y829368D01*
X8774029Y484118D01*
X8697188Y109779D01*
X8641732Y-285829D01*
X8607990Y-694884D01*
X8596289Y-1109564D01*
X-8704263Y-1109564D01*
X-8706526Y-963083D01*
X-8713328Y-694126D01*
X-8722919Y-460390D01*
X-8735964Y-254815D01*
X-8753130Y-70342D01*
X-8775081Y100090D01*
X-8802486Y263539D01*
X-8836009Y427065D01*
X-8838945Y440224D01*
X-8920915Y752419D01*
X-9024443Y1049144D01*
X-9152271Y1335108D01*
X-9307142Y1615022D01*
X-9491799Y1893598D01*
X-9708984Y2175545D01*
X-9961442Y2465574D01*
X-10110955Y2624667D01*
X-10450914Y2954691D01*
X-10797219Y3243814D01*
X-11152239Y3493280D01*
X-11518342Y3704334D01*
X-11897896Y3878220D01*
X-12293268Y4016183D01*
X-12706828Y4119468D01*
X-13071253Y4180504D01*
X-13353923Y4209216D01*
X-13664709Y4225211D01*
X-13991394Y4228636D01*
X-14321760Y4219637D01*
X-14643591Y4198359D01*
X-14944670Y4164949D01*
X-14996583Y4157529D01*
X-15474935Y4067059D01*
X-15930363Y3941228D01*
X-16362406Y3780351D01*
X-16770602Y3584744D01*
X-17154490Y3354722D01*
X-17513608Y3090600D01*
X-17847494Y2792694D01*
X-18155689Y2461319D01*
X-18437729Y2096791D01*
X-18693153Y1699424D01*
X-18756965Y1587500D01*
X-18914349Y1293276D01*
X-19045865Y1020840D01*
X-19153504Y762407D01*
X-19239256Y510197D01*
X-19305112Y256426D01*
X-19353063Y-6688D01*
X-19385099Y-286928D01*
X-19403213Y-592077D01*
X-19409395Y-929917D01*
X-19409434Y-963083D01*
X-24277665Y-963083D01*
X-24249984Y-653851D01*
X-24194878Y-209772D01*
X-24126900Y206110D01*
X-24045786Y596301D01*
X-23957320Y941917D01*
X-23710319Y1750735D01*
X-23431148Y2532914D01*
X-23118732Y3290546D01*
X-22771995Y4025723D01*
X-22389860Y4740534D01*
X-21971251Y5437071D01*
X-21515092Y6117424D01*
X-21020306Y6783686D01*
X-20821637Y7033975D01*
X-20613571Y7287443D01*
X-20407059Y7530351D01*
X-20195914Y7769510D01*
X-19973946Y8011732D01*
X-19734970Y8263829D01*
X-19472796Y8532613D01*
X-19326012Y8680468D01*
X-18872498Y9126363D01*
X-18433448Y9539993D01*
X-18002999Y9926230D01*
X-17575291Y10289943D01*
X-17144464Y10636005D01*
X-16704658Y10969286D01*
X-16250012Y11294657D01*
X-15866253Y11556150D01*
X-15643586Y11703519D01*
X-15429604Y11842342D01*
X-15220490Y11974755D01*
X-15012426Y12102896D01*
X-14801595Y12228902D01*
X-14584179Y12354909D01*
X-14356360Y12483056D01*
X-14114320Y12615479D01*
X-13854242Y12754316D01*
X-13572309Y12901703D01*
X-13264701Y13059778D01*
X-12927602Y13230677D01*
X-12557194Y13416538D01*
X-12425271Y13482381D01*
X-12223801Y13582868D01*
X-12033900Y13677678D01*
X-11858904Y13765140D01*
X-11702149Y13843581D01*
X-11566971Y13911331D01*
X-11456707Y13966715D01*
X-11374693Y14008064D01*
X-11324264Y14033705D01*
X-11308650Y14041961D01*
X-11309164Y14064513D01*
X-11315472Y14122629D01*
X-11326650Y14210076D01*
X-11341771Y14320621D01*
X-11359909Y14448033D01*
X-11380139Y14586077D01*
X-11401534Y14728523D01*
X-11423170Y14869137D01*
X-11444119Y15001687D01*
X-11463457Y15119939D01*
X-11480257Y15217662D01*
X-11493594Y15288623D01*
X-11494475Y15292917D01*
X-11560298Y15578008D01*
X-11645843Y15894849D01*
X-11749450Y16238658D01*
X-11869454Y16604651D01*
X-12004196Y16988044D01*
X-12152012Y17384052D01*
X-12311240Y17787893D01*
X-12480218Y18194782D01*
X-12593925Y18457334D01*
X-12666520Y18618326D01*
X-12755016Y18808261D01*
X-12855834Y19019925D01*
X-12965397Y19246104D01*
X-13080129Y19479585D01*
X-13196453Y19713153D01*
X-13310790Y19939596D01*
X-13419565Y20151699D01*
X-13519200Y20342249D01*
X-13606118Y20504032D01*
X-13633045Y20552834D01*
X-13790906Y20832635D01*
X-13943131Y21094984D01*
X-14087957Y21337110D01*
X-14223620Y21556243D01*
X-14348355Y21749611D01*
X-14460399Y21914445D01*
X-14557987Y22047973D01*
X-14639356Y22147426D01*
X-14667502Y22177589D01*
X-14744561Y22250133D01*
X-14818203Y22303783D01*
X-14897583Y22341930D01*
X-14991856Y22367966D01*
X-15110177Y22385280D01*
X-15260395Y22397185D01*
X-15502161Y22421055D01*
X-15711636Y22462799D01*
X-15896179Y22525457D01*
X-16063147Y22612069D01*
X-16219900Y22725674D01*
X-16353780Y22848925D01*
X-16518210Y23042956D01*
X-16644933Y23255207D01*
X-16733020Y23483452D01*
X-16781540Y23725464D01*
X-16791460Y23897167D01*
X-16774584Y24135632D01*
X-16721701Y24353484D01*
X-16631218Y24554587D01*
X-16501541Y24742808D01*
X-16393986Y24861578D01*
X-16196671Y25035069D01*
X-15990965Y25167274D01*
X-15777082Y25258097D01*
X-15555233Y25307439D01*
X-15401917Y25317244D01*
X-15269508Y25314111D01*
D11*
X127000Y-23749000D03*
X2667000Y-23749000D03*
X2667000Y-26289000D03*
D12*
X127000Y-26289000D03*
X-2413000Y-23749000D03*
X-2413000Y-26289000D03*
M02*
