G04 #@! TF.GenerationSoftware,KiCad,Pcbnew,(5.1.2)-1*
G04 #@! TF.CreationDate,2019-05-29T22:54:16+01:00*
G04 #@! TF.ProjectId,noname,6e6f6e61-6d65-42e6-9b69-6361645f7063,rev?*
G04 #@! TF.SameCoordinates,Original*
G04 #@! TF.FileFunction,Soldermask,Top*
G04 #@! TF.FilePolarity,Negative*
%FSLAX46Y46*%
G04 Gerber Fmt 4.6, Leading zero omitted, Abs format (unit mm)*
G04 Created by KiCad (PCBNEW (5.1.2)-1) date 2019-05-29 22:54:16*
%MOMM*%
%LPD*%
G04 APERTURE LIST*
%ADD10C,0.010000*%
%ADD11C,2.100000*%
%ADD12O,2.100000X2.100000*%
G04 APERTURE END LIST*
D10*
G36*
X8274986Y14007840D02*
G01*
X8444629Y13999415D01*
X8588085Y13982893D01*
X8710688Y13956747D01*
X8817773Y13919449D01*
X8914673Y13869472D01*
X9006721Y13805289D01*
X9099251Y13725372D01*
X9197598Y13628194D01*
X9213121Y13612096D01*
X9398297Y13405789D01*
X9545731Y13211255D01*
X9657303Y13025355D01*
X9734889Y12844948D01*
X9780370Y12666897D01*
X9781027Y12662964D01*
X9790143Y12478496D01*
X9757953Y12288167D01*
X9684891Y12093175D01*
X9571391Y11894722D01*
X9440578Y11720773D01*
X9242370Y11508158D01*
X9036808Y11336883D01*
X8822561Y11206386D01*
X8598296Y11116105D01*
X8362683Y11065478D01*
X8114391Y11053941D01*
X7905750Y11072477D01*
X7664620Y11123853D01*
X7438666Y11207786D01*
X7219771Y11327759D01*
X7074111Y11429211D01*
X6877997Y11594414D01*
X6700414Y11778554D01*
X6545714Y11975427D01*
X6418249Y12178828D01*
X6322369Y12382553D01*
X6262427Y12580397D01*
X6260629Y12589142D01*
X6253699Y12717183D01*
X6277903Y12864850D01*
X6330529Y13026337D01*
X6408865Y13195842D01*
X6510202Y13367557D01*
X6631829Y13535680D01*
X6771034Y13694405D01*
X6782082Y13705743D01*
X6861388Y13782506D01*
X6936925Y13844581D01*
X7014488Y13893620D01*
X7099870Y13931278D01*
X7198865Y13959209D01*
X7317267Y13979065D01*
X7460870Y13992502D01*
X7635468Y14001171D01*
X7835808Y14006509D01*
X8073824Y14009696D01*
X8274986Y14007840D01*
X8274986Y14007840D01*
G37*
X8274986Y14007840D02*
X8444629Y13999415D01*
X8588085Y13982893D01*
X8710688Y13956747D01*
X8817773Y13919449D01*
X8914673Y13869472D01*
X9006721Y13805289D01*
X9099251Y13725372D01*
X9197598Y13628194D01*
X9213121Y13612096D01*
X9398297Y13405789D01*
X9545731Y13211255D01*
X9657303Y13025355D01*
X9734889Y12844948D01*
X9780370Y12666897D01*
X9781027Y12662964D01*
X9790143Y12478496D01*
X9757953Y12288167D01*
X9684891Y12093175D01*
X9571391Y11894722D01*
X9440578Y11720773D01*
X9242370Y11508158D01*
X9036808Y11336883D01*
X8822561Y11206386D01*
X8598296Y11116105D01*
X8362683Y11065478D01*
X8114391Y11053941D01*
X7905750Y11072477D01*
X7664620Y11123853D01*
X7438666Y11207786D01*
X7219771Y11327759D01*
X7074111Y11429211D01*
X6877997Y11594414D01*
X6700414Y11778554D01*
X6545714Y11975427D01*
X6418249Y12178828D01*
X6322369Y12382553D01*
X6262427Y12580397D01*
X6260629Y12589142D01*
X6253699Y12717183D01*
X6277903Y12864850D01*
X6330529Y13026337D01*
X6408865Y13195842D01*
X6510202Y13367557D01*
X6631829Y13535680D01*
X6771034Y13694405D01*
X6782082Y13705743D01*
X6861388Y13782506D01*
X6936925Y13844581D01*
X7014488Y13893620D01*
X7099870Y13931278D01*
X7198865Y13959209D01*
X7317267Y13979065D01*
X7460870Y13992502D01*
X7635468Y14001171D01*
X7835808Y14006509D01*
X8073824Y14009696D01*
X8274986Y14007840D01*
G36*
X361010Y15546398D02*
G01*
X811221Y15533093D01*
X1244751Y15510710D01*
X1658226Y15479363D01*
X2048270Y15439164D01*
X2411506Y15390226D01*
X2744559Y15332661D01*
X3044053Y15266582D01*
X3306612Y15192103D01*
X3391156Y15163357D01*
X3517195Y15113064D01*
X3660378Y15047478D01*
X3808459Y14972937D01*
X3949190Y14895781D01*
X4070324Y14822348D01*
X4133222Y14779271D01*
X4349782Y14602036D01*
X4530700Y14415393D01*
X4674846Y14221404D01*
X4781084Y14022128D01*
X4848284Y13819624D01*
X4875312Y13615954D01*
X4866233Y13446125D01*
X4834774Y13284244D01*
X4785645Y13105881D01*
X4724597Y12929819D01*
X4666350Y12793313D01*
X4605136Y12687794D01*
X4530399Y12605193D01*
X4437228Y12543424D01*
X4320710Y12500404D01*
X4175934Y12474046D01*
X3997989Y12462267D01*
X3884084Y12461248D01*
X3556622Y12479471D01*
X3219820Y12530622D01*
X2869465Y12615570D01*
X2501346Y12735186D01*
X2430980Y12761176D01*
X2210093Y12840757D01*
X2010258Y12904454D01*
X1815416Y12956754D01*
X1609510Y13002141D01*
X1480082Y13026813D01*
X1106659Y13086424D01*
X695596Y13136674D01*
X250517Y13177656D01*
X-224953Y13209460D01*
X-727190Y13232177D01*
X-1252570Y13245899D01*
X-1797467Y13250717D01*
X-2358258Y13246723D01*
X-2931319Y13234006D01*
X-3513024Y13212659D01*
X-4099749Y13182774D01*
X-4687869Y13144440D01*
X-5273761Y13097749D01*
X-5853800Y13042793D01*
X-6424361Y12979663D01*
X-6981820Y12908449D01*
X-7522552Y12829244D01*
X-7736416Y12794838D01*
X-8239820Y12702052D01*
X-8776807Y12584595D01*
X-9346700Y12442666D01*
X-9948827Y12276465D01*
X-10582510Y12086191D01*
X-11247076Y11872044D01*
X-11941849Y11634222D01*
X-12666155Y11372925D01*
X-13091583Y11213703D01*
X-13393838Y11099900D01*
X-13659596Y11001478D01*
X-13891445Y10917554D01*
X-14091973Y10847243D01*
X-14263768Y10789660D01*
X-14409415Y10743921D01*
X-14531504Y10709141D01*
X-14632620Y10684437D01*
X-14651732Y10680385D01*
X-14772981Y10660666D01*
X-14892236Y10650449D01*
X-14998149Y10650062D01*
X-15079374Y10659831D01*
X-15104143Y10667341D01*
X-15146068Y10694851D01*
X-15194325Y10740492D01*
X-15204681Y10752286D01*
X-15239607Y10805170D01*
X-15249614Y10858603D01*
X-15233965Y10922823D01*
X-15191924Y11008071D01*
X-15185452Y11019531D01*
X-15079652Y11175144D01*
X-14937063Y11334685D01*
X-14756955Y11498693D01*
X-14538600Y11667705D01*
X-14281268Y11842257D01*
X-13984231Y12022890D01*
X-13646761Y12210139D01*
X-13393048Y12341910D01*
X-12937462Y12563009D01*
X-12443591Y12784442D01*
X-11915455Y13005038D01*
X-11357075Y13223626D01*
X-10772472Y13439035D01*
X-10165666Y13650095D01*
X-9540680Y13855633D01*
X-8901532Y14054481D01*
X-8252245Y14245465D01*
X-7596839Y14427417D01*
X-6939336Y14599165D01*
X-6283755Y14759538D01*
X-5634118Y14907365D01*
X-4994445Y15041475D01*
X-4368758Y15160699D01*
X-3761078Y15263863D01*
X-3175424Y15349799D01*
X-2973916Y15375899D01*
X-2501474Y15429292D01*
X-2022080Y15472818D01*
X-1539110Y15506591D01*
X-1055940Y15530722D01*
X-575946Y15545325D01*
X-102504Y15550513D01*
X361010Y15546398D01*
X361010Y15546398D01*
G37*
X361010Y15546398D02*
X811221Y15533093D01*
X1244751Y15510710D01*
X1658226Y15479363D01*
X2048270Y15439164D01*
X2411506Y15390226D01*
X2744559Y15332661D01*
X3044053Y15266582D01*
X3306612Y15192103D01*
X3391156Y15163357D01*
X3517195Y15113064D01*
X3660378Y15047478D01*
X3808459Y14972937D01*
X3949190Y14895781D01*
X4070324Y14822348D01*
X4133222Y14779271D01*
X4349782Y14602036D01*
X4530700Y14415393D01*
X4674846Y14221404D01*
X4781084Y14022128D01*
X4848284Y13819624D01*
X4875312Y13615954D01*
X4866233Y13446125D01*
X4834774Y13284244D01*
X4785645Y13105881D01*
X4724597Y12929819D01*
X4666350Y12793313D01*
X4605136Y12687794D01*
X4530399Y12605193D01*
X4437228Y12543424D01*
X4320710Y12500404D01*
X4175934Y12474046D01*
X3997989Y12462267D01*
X3884084Y12461248D01*
X3556622Y12479471D01*
X3219820Y12530622D01*
X2869465Y12615570D01*
X2501346Y12735186D01*
X2430980Y12761176D01*
X2210093Y12840757D01*
X2010258Y12904454D01*
X1815416Y12956754D01*
X1609510Y13002141D01*
X1480082Y13026813D01*
X1106659Y13086424D01*
X695596Y13136674D01*
X250517Y13177656D01*
X-224953Y13209460D01*
X-727190Y13232177D01*
X-1252570Y13245899D01*
X-1797467Y13250717D01*
X-2358258Y13246723D01*
X-2931319Y13234006D01*
X-3513024Y13212659D01*
X-4099749Y13182774D01*
X-4687869Y13144440D01*
X-5273761Y13097749D01*
X-5853800Y13042793D01*
X-6424361Y12979663D01*
X-6981820Y12908449D01*
X-7522552Y12829244D01*
X-7736416Y12794838D01*
X-8239820Y12702052D01*
X-8776807Y12584595D01*
X-9346700Y12442666D01*
X-9948827Y12276465D01*
X-10582510Y12086191D01*
X-11247076Y11872044D01*
X-11941849Y11634222D01*
X-12666155Y11372925D01*
X-13091583Y11213703D01*
X-13393838Y11099900D01*
X-13659596Y11001478D01*
X-13891445Y10917554D01*
X-14091973Y10847243D01*
X-14263768Y10789660D01*
X-14409415Y10743921D01*
X-14531504Y10709141D01*
X-14632620Y10684437D01*
X-14651732Y10680385D01*
X-14772981Y10660666D01*
X-14892236Y10650449D01*
X-14998149Y10650062D01*
X-15079374Y10659831D01*
X-15104143Y10667341D01*
X-15146068Y10694851D01*
X-15194325Y10740492D01*
X-15204681Y10752286D01*
X-15239607Y10805170D01*
X-15249614Y10858603D01*
X-15233965Y10922823D01*
X-15191924Y11008071D01*
X-15185452Y11019531D01*
X-15079652Y11175144D01*
X-14937063Y11334685D01*
X-14756955Y11498693D01*
X-14538600Y11667705D01*
X-14281268Y11842257D01*
X-13984231Y12022890D01*
X-13646761Y12210139D01*
X-13393048Y12341910D01*
X-12937462Y12563009D01*
X-12443591Y12784442D01*
X-11915455Y13005038D01*
X-11357075Y13223626D01*
X-10772472Y13439035D01*
X-10165666Y13650095D01*
X-9540680Y13855633D01*
X-8901532Y14054481D01*
X-8252245Y14245465D01*
X-7596839Y14427417D01*
X-6939336Y14599165D01*
X-6283755Y14759538D01*
X-5634118Y14907365D01*
X-4994445Y15041475D01*
X-4368758Y15160699D01*
X-3761078Y15263863D01*
X-3175424Y15349799D01*
X-2973916Y15375899D01*
X-2501474Y15429292D01*
X-2022080Y15472818D01*
X-1539110Y15506591D01*
X-1055940Y15530722D01*
X-575946Y15545325D01*
X-102504Y15550513D01*
X361010Y15546398D01*
G36*
X14188703Y3699479D02*
G01*
X14391624Y3689386D01*
X14567193Y3672746D01*
X14576622Y3671532D01*
X15017638Y3593429D01*
X15446932Y3477075D01*
X15861585Y3324041D01*
X16258680Y3135899D01*
X16635300Y2914220D01*
X16988525Y2660576D01*
X17315439Y2376539D01*
X17613124Y2063679D01*
X17656533Y2012621D01*
X17933737Y1649171D01*
X18173770Y1265909D01*
X18375975Y864300D01*
X18539693Y445810D01*
X18664266Y11907D01*
X18745836Y-413808D01*
X18776842Y-715952D01*
X18786185Y-1041335D01*
X18774453Y-1377178D01*
X18742234Y-1710706D01*
X18690116Y-2029141D01*
X18666546Y-2137833D01*
X18588018Y-2422272D01*
X18483040Y-2721447D01*
X18357168Y-3022385D01*
X18215959Y-3312115D01*
X18064971Y-3577667D01*
X18018224Y-3651250D01*
X17758319Y-4010833D01*
X17467287Y-4343203D01*
X17147766Y-4646685D01*
X16802391Y-4919603D01*
X16433797Y-5160284D01*
X16044622Y-5367053D01*
X15637501Y-5538235D01*
X15215070Y-5672156D01*
X14779965Y-5767141D01*
X14657348Y-5786370D01*
X14538332Y-5800221D01*
X14392069Y-5812293D01*
X14230063Y-5822102D01*
X14063821Y-5829160D01*
X13904848Y-5832982D01*
X13764651Y-5833082D01*
X13654734Y-5828973D01*
X13652500Y-5828814D01*
X13206911Y-5776334D01*
X12773765Y-5685160D01*
X12355108Y-5556981D01*
X11952984Y-5393490D01*
X11569436Y-5196378D01*
X11206511Y-4967334D01*
X10866251Y-4708050D01*
X10550702Y-4420216D01*
X10261907Y-4105524D01*
X10001912Y-3765664D01*
X9772760Y-3402326D01*
X9576496Y-3017203D01*
X9415163Y-2611985D01*
X9301131Y-2229963D01*
X9242381Y-1975825D01*
X9200677Y-1739807D01*
X9174082Y-1506040D01*
X9160658Y-1258656D01*
X9158540Y-1095143D01*
X13497928Y-1095143D01*
X13507265Y-1228131D01*
X13534832Y-1344240D01*
X13577885Y-1434567D01*
X13615799Y-1477712D01*
X13660573Y-1505511D01*
X13730422Y-1539401D01*
X13812123Y-1574024D01*
X13892452Y-1604020D01*
X13958184Y-1624030D01*
X13989776Y-1629260D01*
X14040064Y-1620463D01*
X14105860Y-1597651D01*
X14131936Y-1585957D01*
X14209096Y-1536158D01*
X14291000Y-1463424D01*
X14367230Y-1379183D01*
X14427366Y-1294864D01*
X14459690Y-1226478D01*
X14473398Y-1156775D01*
X14469614Y-1082970D01*
X14459281Y-1029254D01*
X14407011Y-880014D01*
X14324944Y-754913D01*
X14217804Y-657991D01*
X14090314Y-593290D01*
X13947196Y-564853D01*
X13915420Y-563866D01*
X13801181Y-573991D01*
X13712195Y-608709D01*
X13639991Y-673614D01*
X13576097Y-774302D01*
X13565726Y-794821D01*
X13529090Y-876076D01*
X13508558Y-945446D01*
X13499654Y-1022754D01*
X13497928Y-1095143D01*
X9158540Y-1095143D01*
X9158063Y-1058333D01*
X9163755Y-784505D01*
X9181552Y-536318D01*
X9213360Y-298326D01*
X9261083Y-55082D01*
X9303493Y120797D01*
X9433062Y543152D01*
X9599478Y946961D01*
X9800722Y1330466D01*
X10034777Y1691906D01*
X10299625Y2029520D01*
X10593249Y2341550D01*
X10913630Y2626234D01*
X11258753Y2881814D01*
X11626598Y3106528D01*
X12015149Y3298618D01*
X12422387Y3456322D01*
X12846296Y3577881D01*
X13284857Y3661535D01*
X13376529Y3673861D01*
X13552342Y3690217D01*
X13755410Y3699921D01*
X13972081Y3703000D01*
X14188703Y3699479D01*
X14188703Y3699479D01*
G37*
X14188703Y3699479D02*
X14391624Y3689386D01*
X14567193Y3672746D01*
X14576622Y3671532D01*
X15017638Y3593429D01*
X15446932Y3477075D01*
X15861585Y3324041D01*
X16258680Y3135899D01*
X16635300Y2914220D01*
X16988525Y2660576D01*
X17315439Y2376539D01*
X17613124Y2063679D01*
X17656533Y2012621D01*
X17933737Y1649171D01*
X18173770Y1265909D01*
X18375975Y864300D01*
X18539693Y445810D01*
X18664266Y11907D01*
X18745836Y-413808D01*
X18776842Y-715952D01*
X18786185Y-1041335D01*
X18774453Y-1377178D01*
X18742234Y-1710706D01*
X18690116Y-2029141D01*
X18666546Y-2137833D01*
X18588018Y-2422272D01*
X18483040Y-2721447D01*
X18357168Y-3022385D01*
X18215959Y-3312115D01*
X18064971Y-3577667D01*
X18018224Y-3651250D01*
X17758319Y-4010833D01*
X17467287Y-4343203D01*
X17147766Y-4646685D01*
X16802391Y-4919603D01*
X16433797Y-5160284D01*
X16044622Y-5367053D01*
X15637501Y-5538235D01*
X15215070Y-5672156D01*
X14779965Y-5767141D01*
X14657348Y-5786370D01*
X14538332Y-5800221D01*
X14392069Y-5812293D01*
X14230063Y-5822102D01*
X14063821Y-5829160D01*
X13904848Y-5832982D01*
X13764651Y-5833082D01*
X13654734Y-5828973D01*
X13652500Y-5828814D01*
X13206911Y-5776334D01*
X12773765Y-5685160D01*
X12355108Y-5556981D01*
X11952984Y-5393490D01*
X11569436Y-5196378D01*
X11206511Y-4967334D01*
X10866251Y-4708050D01*
X10550702Y-4420216D01*
X10261907Y-4105524D01*
X10001912Y-3765664D01*
X9772760Y-3402326D01*
X9576496Y-3017203D01*
X9415163Y-2611985D01*
X9301131Y-2229963D01*
X9242381Y-1975825D01*
X9200677Y-1739807D01*
X9174082Y-1506040D01*
X9160658Y-1258656D01*
X9158540Y-1095143D01*
X13497928Y-1095143D01*
X13507265Y-1228131D01*
X13534832Y-1344240D01*
X13577885Y-1434567D01*
X13615799Y-1477712D01*
X13660573Y-1505511D01*
X13730422Y-1539401D01*
X13812123Y-1574024D01*
X13892452Y-1604020D01*
X13958184Y-1624030D01*
X13989776Y-1629260D01*
X14040064Y-1620463D01*
X14105860Y-1597651D01*
X14131936Y-1585957D01*
X14209096Y-1536158D01*
X14291000Y-1463424D01*
X14367230Y-1379183D01*
X14427366Y-1294864D01*
X14459690Y-1226478D01*
X14473398Y-1156775D01*
X14469614Y-1082970D01*
X14459281Y-1029254D01*
X14407011Y-880014D01*
X14324944Y-754913D01*
X14217804Y-657991D01*
X14090314Y-593290D01*
X13947196Y-564853D01*
X13915420Y-563866D01*
X13801181Y-573991D01*
X13712195Y-608709D01*
X13639991Y-673614D01*
X13576097Y-774302D01*
X13565726Y-794821D01*
X13529090Y-876076D01*
X13508558Y-945446D01*
X13499654Y-1022754D01*
X13497928Y-1095143D01*
X9158540Y-1095143D01*
X9158063Y-1058333D01*
X9163755Y-784505D01*
X9181552Y-536318D01*
X9213360Y-298326D01*
X9261083Y-55082D01*
X9303493Y120797D01*
X9433062Y543152D01*
X9599478Y946961D01*
X9800722Y1330466D01*
X10034777Y1691906D01*
X10299625Y2029520D01*
X10593249Y2341550D01*
X10913630Y2626234D01*
X11258753Y2881814D01*
X11626598Y3106528D01*
X12015149Y3298618D01*
X12422387Y3456322D01*
X12846296Y3577881D01*
X13284857Y3661535D01*
X13376529Y3673861D01*
X13552342Y3690217D01*
X13755410Y3699921D01*
X13972081Y3703000D01*
X14188703Y3699479D01*
G36*
X-13745869Y3674760D02*
G01*
X-13298240Y3627432D01*
X-13064774Y3586403D01*
X-12638356Y3479961D01*
X-12225696Y3335064D01*
X-11829298Y3153738D01*
X-11451662Y2938010D01*
X-11095291Y2689906D01*
X-10762687Y2411453D01*
X-10456352Y2104677D01*
X-10178788Y1771606D01*
X-9932496Y1414264D01*
X-9719980Y1034680D01*
X-9603768Y783167D01*
X-9452762Y383666D01*
X-9340925Y-15811D01*
X-9266098Y-424394D01*
X-9229108Y-799346D01*
X-9222427Y-1241614D01*
X-9256994Y-1679426D01*
X-9331762Y-2110105D01*
X-9445683Y-2530977D01*
X-9597710Y-2939363D01*
X-9786795Y-3332588D01*
X-10011890Y-3707976D01*
X-10271949Y-4062850D01*
X-10565923Y-4394534D01*
X-10681160Y-4509003D01*
X-11023671Y-4809276D01*
X-11387391Y-5072972D01*
X-11771738Y-5299804D01*
X-12176127Y-5489488D01*
X-12599975Y-5641739D01*
X-13042699Y-5756270D01*
X-13345583Y-5811156D01*
X-13468803Y-5825783D01*
X-13621441Y-5837668D01*
X-13792328Y-5846512D01*
X-13970295Y-5852014D01*
X-14144171Y-5853872D01*
X-14302785Y-5851786D01*
X-14434970Y-5845454D01*
X-14478000Y-5841660D01*
X-14923804Y-5777192D01*
X-15347907Y-5678746D01*
X-15755934Y-5544679D01*
X-16153509Y-5373346D01*
X-16258976Y-5320900D01*
X-16630010Y-5108167D01*
X-16983874Y-4859388D01*
X-17316394Y-4578559D01*
X-17623398Y-4269676D01*
X-17900710Y-3936732D01*
X-18144158Y-3583724D01*
X-18236853Y-3427703D01*
X-18436423Y-3037492D01*
X-18595478Y-2642055D01*
X-18714962Y-2237776D01*
X-18795820Y-1821037D01*
X-18838996Y-1388222D01*
X-18845857Y-1142175D01*
X-14540263Y-1142175D01*
X-14526303Y-1278678D01*
X-14520789Y-1300121D01*
X-14483831Y-1388679D01*
X-14423722Y-1460837D01*
X-14333443Y-1523382D01*
X-14245166Y-1566558D01*
X-14138531Y-1607749D01*
X-14054857Y-1625295D01*
X-13982710Y-1620225D01*
X-13916142Y-1596218D01*
X-13846774Y-1550329D01*
X-13769057Y-1479094D01*
X-13694242Y-1394687D01*
X-13633583Y-1309284D01*
X-13609425Y-1264325D01*
X-13570944Y-1134759D01*
X-13567793Y-1003174D01*
X-13596485Y-876499D01*
X-13653531Y-761665D01*
X-13735445Y-665601D01*
X-13838738Y-595238D01*
X-13959924Y-557506D01*
X-13965539Y-556713D01*
X-14089310Y-560026D01*
X-14206425Y-599799D01*
X-14312544Y-670220D01*
X-14403327Y-765478D01*
X-14474435Y-879764D01*
X-14521527Y-1007267D01*
X-14540263Y-1142175D01*
X-18845857Y-1142175D01*
X-18847310Y-1090083D01*
X-18833930Y-687084D01*
X-18791607Y-308054D01*
X-18718329Y55702D01*
X-18612082Y412881D01*
X-18470854Y772177D01*
X-18362084Y1005417D01*
X-18159580Y1378598D01*
X-17934146Y1720563D01*
X-17681248Y2036928D01*
X-17396353Y2333311D01*
X-17074926Y2615326D01*
X-17039166Y2644098D01*
X-16680002Y2904130D01*
X-16300583Y3127922D01*
X-15903537Y3314852D01*
X-15491492Y3464296D01*
X-15067075Y3575632D01*
X-14632914Y3648237D01*
X-14191636Y3681487D01*
X-13745869Y3674760D01*
X-13745869Y3674760D01*
G37*
X-13745869Y3674760D02*
X-13298240Y3627432D01*
X-13064774Y3586403D01*
X-12638356Y3479961D01*
X-12225696Y3335064D01*
X-11829298Y3153738D01*
X-11451662Y2938010D01*
X-11095291Y2689906D01*
X-10762687Y2411453D01*
X-10456352Y2104677D01*
X-10178788Y1771606D01*
X-9932496Y1414264D01*
X-9719980Y1034680D01*
X-9603768Y783167D01*
X-9452762Y383666D01*
X-9340925Y-15811D01*
X-9266098Y-424394D01*
X-9229108Y-799346D01*
X-9222427Y-1241614D01*
X-9256994Y-1679426D01*
X-9331762Y-2110105D01*
X-9445683Y-2530977D01*
X-9597710Y-2939363D01*
X-9786795Y-3332588D01*
X-10011890Y-3707976D01*
X-10271949Y-4062850D01*
X-10565923Y-4394534D01*
X-10681160Y-4509003D01*
X-11023671Y-4809276D01*
X-11387391Y-5072972D01*
X-11771738Y-5299804D01*
X-12176127Y-5489488D01*
X-12599975Y-5641739D01*
X-13042699Y-5756270D01*
X-13345583Y-5811156D01*
X-13468803Y-5825783D01*
X-13621441Y-5837668D01*
X-13792328Y-5846512D01*
X-13970295Y-5852014D01*
X-14144171Y-5853872D01*
X-14302785Y-5851786D01*
X-14434970Y-5845454D01*
X-14478000Y-5841660D01*
X-14923804Y-5777192D01*
X-15347907Y-5678746D01*
X-15755934Y-5544679D01*
X-16153509Y-5373346D01*
X-16258976Y-5320900D01*
X-16630010Y-5108167D01*
X-16983874Y-4859388D01*
X-17316394Y-4578559D01*
X-17623398Y-4269676D01*
X-17900710Y-3936732D01*
X-18144158Y-3583724D01*
X-18236853Y-3427703D01*
X-18436423Y-3037492D01*
X-18595478Y-2642055D01*
X-18714962Y-2237776D01*
X-18795820Y-1821037D01*
X-18838996Y-1388222D01*
X-18845857Y-1142175D01*
X-14540263Y-1142175D01*
X-14526303Y-1278678D01*
X-14520789Y-1300121D01*
X-14483831Y-1388679D01*
X-14423722Y-1460837D01*
X-14333443Y-1523382D01*
X-14245166Y-1566558D01*
X-14138531Y-1607749D01*
X-14054857Y-1625295D01*
X-13982710Y-1620225D01*
X-13916142Y-1596218D01*
X-13846774Y-1550329D01*
X-13769057Y-1479094D01*
X-13694242Y-1394687D01*
X-13633583Y-1309284D01*
X-13609425Y-1264325D01*
X-13570944Y-1134759D01*
X-13567793Y-1003174D01*
X-13596485Y-876499D01*
X-13653531Y-761665D01*
X-13735445Y-665601D01*
X-13838738Y-595238D01*
X-13959924Y-557506D01*
X-13965539Y-556713D01*
X-14089310Y-560026D01*
X-14206425Y-599799D01*
X-14312544Y-670220D01*
X-14403327Y-765478D01*
X-14474435Y-879764D01*
X-14521527Y-1007267D01*
X-14540263Y-1142175D01*
X-18845857Y-1142175D01*
X-18847310Y-1090083D01*
X-18833930Y-687084D01*
X-18791607Y-308054D01*
X-18718329Y55702D01*
X-18612082Y412881D01*
X-18470854Y772177D01*
X-18362084Y1005417D01*
X-18159580Y1378598D01*
X-17934146Y1720563D01*
X-17681248Y2036928D01*
X-17396353Y2333311D01*
X-17074926Y2615326D01*
X-17039166Y2644098D01*
X-16680002Y2904130D01*
X-16300583Y3127922D01*
X-15903537Y3314852D01*
X-15491492Y3464296D01*
X-15067075Y3575632D01*
X-14632914Y3648237D01*
X-14191636Y3681487D01*
X-13745869Y3674760D01*
G36*
X30501167Y-31496000D02*
G01*
X-30501166Y-31496000D01*
X-30501166Y30501167D01*
X-29506333Y30501167D01*
X-29506333Y-30501166D01*
X29506334Y-30501166D01*
X29506334Y30501167D01*
X-29506333Y30501167D01*
X-30501166Y30501167D01*
X-30501166Y31496000D01*
X30501167Y31496000D01*
X30501167Y-31496000D01*
X30501167Y-31496000D01*
G37*
X30501167Y-31496000D02*
X-30501166Y-31496000D01*
X-30501166Y30501167D01*
X-29506333Y30501167D01*
X-29506333Y-30501166D01*
X29506334Y-30501166D01*
X29506334Y30501167D01*
X-29506333Y30501167D01*
X-30501166Y30501167D01*
X-30501166Y31496000D01*
X30501167Y31496000D01*
X30501167Y-31496000D01*
D11*
X127000Y-23749000D03*
X2667000Y-23749000D03*
X2667000Y-26289000D03*
D12*
X127000Y-26289000D03*
X-2413000Y-23749000D03*
X-2413000Y-26289000D03*
M02*
