G04 #@! TF.GenerationSoftware,KiCad,Pcbnew,(5.1.2)-1*
G04 #@! TF.CreationDate,2019-05-29T22:54:16+01:00*
G04 #@! TF.ProjectId,noname,6e6f6e61-6d65-42e6-9b69-6361645f7063,rev?*
G04 #@! TF.SameCoordinates,Original*
G04 #@! TF.FileFunction,Paste,Bot*
G04 #@! TF.FilePolarity,Positive*
%FSLAX46Y46*%
G04 Gerber Fmt 4.6, Leading zero omitted, Abs format (unit mm)*
G04 Created by KiCad (PCBNEW (5.1.2)-1) date 2019-05-29 22:54:16*
%MOMM*%
%LPD*%
G04 APERTURE LIST*
%ADD10C,0.100000*%
%ADD11C,1.150000*%
G04 APERTURE END LIST*
D10*
G36*
X14444910Y318798D02*
G01*
X14469135Y315205D01*
X14492891Y309254D01*
X14515949Y301004D01*
X14538087Y290533D01*
X14559093Y277943D01*
X14578763Y263355D01*
X14596908Y246908D01*
X14613355Y228763D01*
X14627943Y209093D01*
X14640533Y188087D01*
X14651004Y165949D01*
X14659254Y142891D01*
X14665205Y119135D01*
X14668798Y94910D01*
X14670000Y70450D01*
X14670000Y-580450D01*
X14668798Y-604910D01*
X14665205Y-629135D01*
X14659254Y-652891D01*
X14651004Y-675949D01*
X14640533Y-698087D01*
X14627943Y-719093D01*
X14613355Y-738763D01*
X14596908Y-756908D01*
X14578763Y-773355D01*
X14559093Y-787943D01*
X14538087Y-800533D01*
X14515949Y-811004D01*
X14492891Y-819254D01*
X14469135Y-825205D01*
X14444910Y-828798D01*
X14420450Y-830000D01*
X13519550Y-830000D01*
X13495090Y-828798D01*
X13470865Y-825205D01*
X13447109Y-819254D01*
X13424051Y-811004D01*
X13401913Y-800533D01*
X13380907Y-787943D01*
X13361237Y-773355D01*
X13343092Y-756908D01*
X13326645Y-738763D01*
X13312057Y-719093D01*
X13299467Y-698087D01*
X13288996Y-675949D01*
X13280746Y-652891D01*
X13274795Y-629135D01*
X13271202Y-604910D01*
X13270000Y-580450D01*
X13270000Y70450D01*
X13271202Y94910D01*
X13274795Y119135D01*
X13280746Y142891D01*
X13288996Y165949D01*
X13299467Y188087D01*
X13312057Y209093D01*
X13326645Y228763D01*
X13343092Y246908D01*
X13361237Y263355D01*
X13380907Y277943D01*
X13401913Y290533D01*
X13424051Y301004D01*
X13447109Y309254D01*
X13470865Y315205D01*
X13495090Y318798D01*
X13519550Y320000D01*
X14420450Y320000D01*
X14444910Y318798D01*
X14444910Y318798D01*
G37*
D11*
X13970000Y-255000D03*
D10*
G36*
X14444910Y3268798D02*
G01*
X14469135Y3265205D01*
X14492891Y3259254D01*
X14515949Y3251004D01*
X14538087Y3240533D01*
X14559093Y3227943D01*
X14578763Y3213355D01*
X14596908Y3196908D01*
X14613355Y3178763D01*
X14627943Y3159093D01*
X14640533Y3138087D01*
X14651004Y3115949D01*
X14659254Y3092891D01*
X14665205Y3069135D01*
X14668798Y3044910D01*
X14670000Y3020450D01*
X14670000Y2369550D01*
X14668798Y2345090D01*
X14665205Y2320865D01*
X14659254Y2297109D01*
X14651004Y2274051D01*
X14640533Y2251913D01*
X14627943Y2230907D01*
X14613355Y2211237D01*
X14596908Y2193092D01*
X14578763Y2176645D01*
X14559093Y2162057D01*
X14538087Y2149467D01*
X14515949Y2138996D01*
X14492891Y2130746D01*
X14469135Y2124795D01*
X14444910Y2121202D01*
X14420450Y2120000D01*
X13519550Y2120000D01*
X13495090Y2121202D01*
X13470865Y2124795D01*
X13447109Y2130746D01*
X13424051Y2138996D01*
X13401913Y2149467D01*
X13380907Y2162057D01*
X13361237Y2176645D01*
X13343092Y2193092D01*
X13326645Y2211237D01*
X13312057Y2230907D01*
X13299467Y2251913D01*
X13288996Y2274051D01*
X13280746Y2297109D01*
X13274795Y2320865D01*
X13271202Y2345090D01*
X13270000Y2369550D01*
X13270000Y3020450D01*
X13271202Y3044910D01*
X13274795Y3069135D01*
X13280746Y3092891D01*
X13288996Y3115949D01*
X13299467Y3138087D01*
X13312057Y3159093D01*
X13326645Y3178763D01*
X13343092Y3196908D01*
X13361237Y3213355D01*
X13380907Y3227943D01*
X13401913Y3240533D01*
X13424051Y3251004D01*
X13447109Y3259254D01*
X13470865Y3265205D01*
X13495090Y3268798D01*
X13519550Y3270000D01*
X14420450Y3270000D01*
X14444910Y3268798D01*
X14444910Y3268798D01*
G37*
D11*
X13970000Y2695000D03*
D10*
G36*
X-13622090Y3268798D02*
G01*
X-13597865Y3265205D01*
X-13574109Y3259254D01*
X-13551051Y3251004D01*
X-13528913Y3240533D01*
X-13507907Y3227943D01*
X-13488237Y3213355D01*
X-13470092Y3196908D01*
X-13453645Y3178763D01*
X-13439057Y3159093D01*
X-13426467Y3138087D01*
X-13415996Y3115949D01*
X-13407746Y3092891D01*
X-13401795Y3069135D01*
X-13398202Y3044910D01*
X-13397000Y3020450D01*
X-13397000Y2369550D01*
X-13398202Y2345090D01*
X-13401795Y2320865D01*
X-13407746Y2297109D01*
X-13415996Y2274051D01*
X-13426467Y2251913D01*
X-13439057Y2230907D01*
X-13453645Y2211237D01*
X-13470092Y2193092D01*
X-13488237Y2176645D01*
X-13507907Y2162057D01*
X-13528913Y2149467D01*
X-13551051Y2138996D01*
X-13574109Y2130746D01*
X-13597865Y2124795D01*
X-13622090Y2121202D01*
X-13646550Y2120000D01*
X-14547450Y2120000D01*
X-14571910Y2121202D01*
X-14596135Y2124795D01*
X-14619891Y2130746D01*
X-14642949Y2138996D01*
X-14665087Y2149467D01*
X-14686093Y2162057D01*
X-14705763Y2176645D01*
X-14723908Y2193092D01*
X-14740355Y2211237D01*
X-14754943Y2230907D01*
X-14767533Y2251913D01*
X-14778004Y2274051D01*
X-14786254Y2297109D01*
X-14792205Y2320865D01*
X-14795798Y2345090D01*
X-14797000Y2369550D01*
X-14797000Y3020450D01*
X-14795798Y3044910D01*
X-14792205Y3069135D01*
X-14786254Y3092891D01*
X-14778004Y3115949D01*
X-14767533Y3138087D01*
X-14754943Y3159093D01*
X-14740355Y3178763D01*
X-14723908Y3196908D01*
X-14705763Y3213355D01*
X-14686093Y3227943D01*
X-14665087Y3240533D01*
X-14642949Y3251004D01*
X-14619891Y3259254D01*
X-14596135Y3265205D01*
X-14571910Y3268798D01*
X-14547450Y3270000D01*
X-13646550Y3270000D01*
X-13622090Y3268798D01*
X-13622090Y3268798D01*
G37*
D11*
X-14097000Y2695000D03*
D10*
G36*
X-13622090Y318798D02*
G01*
X-13597865Y315205D01*
X-13574109Y309254D01*
X-13551051Y301004D01*
X-13528913Y290533D01*
X-13507907Y277943D01*
X-13488237Y263355D01*
X-13470092Y246908D01*
X-13453645Y228763D01*
X-13439057Y209093D01*
X-13426467Y188087D01*
X-13415996Y165949D01*
X-13407746Y142891D01*
X-13401795Y119135D01*
X-13398202Y94910D01*
X-13397000Y70450D01*
X-13397000Y-580450D01*
X-13398202Y-604910D01*
X-13401795Y-629135D01*
X-13407746Y-652891D01*
X-13415996Y-675949D01*
X-13426467Y-698087D01*
X-13439057Y-719093D01*
X-13453645Y-738763D01*
X-13470092Y-756908D01*
X-13488237Y-773355D01*
X-13507907Y-787943D01*
X-13528913Y-800533D01*
X-13551051Y-811004D01*
X-13574109Y-819254D01*
X-13597865Y-825205D01*
X-13622090Y-828798D01*
X-13646550Y-830000D01*
X-14547450Y-830000D01*
X-14571910Y-828798D01*
X-14596135Y-825205D01*
X-14619891Y-819254D01*
X-14642949Y-811004D01*
X-14665087Y-800533D01*
X-14686093Y-787943D01*
X-14705763Y-773355D01*
X-14723908Y-756908D01*
X-14740355Y-738763D01*
X-14754943Y-719093D01*
X-14767533Y-698087D01*
X-14778004Y-675949D01*
X-14786254Y-652891D01*
X-14792205Y-629135D01*
X-14795798Y-604910D01*
X-14797000Y-580450D01*
X-14797000Y70450D01*
X-14795798Y94910D01*
X-14792205Y119135D01*
X-14786254Y142891D01*
X-14778004Y165949D01*
X-14767533Y188087D01*
X-14754943Y209093D01*
X-14740355Y228763D01*
X-14723908Y246908D01*
X-14705763Y263355D01*
X-14686093Y277943D01*
X-14665087Y290533D01*
X-14642949Y301004D01*
X-14619891Y309254D01*
X-14596135Y315205D01*
X-14571910Y318798D01*
X-14547450Y320000D01*
X-13646550Y320000D01*
X-13622090Y318798D01*
X-13622090Y318798D01*
G37*
D11*
X-14097000Y-255000D03*
D10*
G36*
X-13622090Y-4280202D02*
G01*
X-13597865Y-4283795D01*
X-13574109Y-4289746D01*
X-13551051Y-4297996D01*
X-13528913Y-4308467D01*
X-13507907Y-4321057D01*
X-13488237Y-4335645D01*
X-13470092Y-4352092D01*
X-13453645Y-4370237D01*
X-13439057Y-4389907D01*
X-13426467Y-4410913D01*
X-13415996Y-4433051D01*
X-13407746Y-4456109D01*
X-13401795Y-4479865D01*
X-13398202Y-4504090D01*
X-13397000Y-4528550D01*
X-13397000Y-5179450D01*
X-13398202Y-5203910D01*
X-13401795Y-5228135D01*
X-13407746Y-5251891D01*
X-13415996Y-5274949D01*
X-13426467Y-5297087D01*
X-13439057Y-5318093D01*
X-13453645Y-5337763D01*
X-13470092Y-5355908D01*
X-13488237Y-5372355D01*
X-13507907Y-5386943D01*
X-13528913Y-5399533D01*
X-13551051Y-5410004D01*
X-13574109Y-5418254D01*
X-13597865Y-5424205D01*
X-13622090Y-5427798D01*
X-13646550Y-5429000D01*
X-14547450Y-5429000D01*
X-14571910Y-5427798D01*
X-14596135Y-5424205D01*
X-14619891Y-5418254D01*
X-14642949Y-5410004D01*
X-14665087Y-5399533D01*
X-14686093Y-5386943D01*
X-14705763Y-5372355D01*
X-14723908Y-5355908D01*
X-14740355Y-5337763D01*
X-14754943Y-5318093D01*
X-14767533Y-5297087D01*
X-14778004Y-5274949D01*
X-14786254Y-5251891D01*
X-14792205Y-5228135D01*
X-14795798Y-5203910D01*
X-14797000Y-5179450D01*
X-14797000Y-4528550D01*
X-14795798Y-4504090D01*
X-14792205Y-4479865D01*
X-14786254Y-4456109D01*
X-14778004Y-4433051D01*
X-14767533Y-4410913D01*
X-14754943Y-4389907D01*
X-14740355Y-4370237D01*
X-14723908Y-4352092D01*
X-14705763Y-4335645D01*
X-14686093Y-4321057D01*
X-14665087Y-4308467D01*
X-14642949Y-4297996D01*
X-14619891Y-4289746D01*
X-14596135Y-4283795D01*
X-14571910Y-4280202D01*
X-14547450Y-4279000D01*
X-13646550Y-4279000D01*
X-13622090Y-4280202D01*
X-13622090Y-4280202D01*
G37*
D11*
X-14097000Y-4854000D03*
D10*
G36*
X-13622090Y-1330202D02*
G01*
X-13597865Y-1333795D01*
X-13574109Y-1339746D01*
X-13551051Y-1347996D01*
X-13528913Y-1358467D01*
X-13507907Y-1371057D01*
X-13488237Y-1385645D01*
X-13470092Y-1402092D01*
X-13453645Y-1420237D01*
X-13439057Y-1439907D01*
X-13426467Y-1460913D01*
X-13415996Y-1483051D01*
X-13407746Y-1506109D01*
X-13401795Y-1529865D01*
X-13398202Y-1554090D01*
X-13397000Y-1578550D01*
X-13397000Y-2229450D01*
X-13398202Y-2253910D01*
X-13401795Y-2278135D01*
X-13407746Y-2301891D01*
X-13415996Y-2324949D01*
X-13426467Y-2347087D01*
X-13439057Y-2368093D01*
X-13453645Y-2387763D01*
X-13470092Y-2405908D01*
X-13488237Y-2422355D01*
X-13507907Y-2436943D01*
X-13528913Y-2449533D01*
X-13551051Y-2460004D01*
X-13574109Y-2468254D01*
X-13597865Y-2474205D01*
X-13622090Y-2477798D01*
X-13646550Y-2479000D01*
X-14547450Y-2479000D01*
X-14571910Y-2477798D01*
X-14596135Y-2474205D01*
X-14619891Y-2468254D01*
X-14642949Y-2460004D01*
X-14665087Y-2449533D01*
X-14686093Y-2436943D01*
X-14705763Y-2422355D01*
X-14723908Y-2405908D01*
X-14740355Y-2387763D01*
X-14754943Y-2368093D01*
X-14767533Y-2347087D01*
X-14778004Y-2324949D01*
X-14786254Y-2301891D01*
X-14792205Y-2278135D01*
X-14795798Y-2253910D01*
X-14797000Y-2229450D01*
X-14797000Y-1578550D01*
X-14795798Y-1554090D01*
X-14792205Y-1529865D01*
X-14786254Y-1506109D01*
X-14778004Y-1483051D01*
X-14767533Y-1460913D01*
X-14754943Y-1439907D01*
X-14740355Y-1420237D01*
X-14723908Y-1402092D01*
X-14705763Y-1385645D01*
X-14686093Y-1371057D01*
X-14665087Y-1358467D01*
X-14642949Y-1347996D01*
X-14619891Y-1339746D01*
X-14596135Y-1333795D01*
X-14571910Y-1330202D01*
X-14547450Y-1329000D01*
X-13646550Y-1329000D01*
X-13622090Y-1330202D01*
X-13622090Y-1330202D01*
G37*
D11*
X-14097000Y-1904000D03*
D10*
G36*
X-16098590Y955798D02*
G01*
X-16074365Y952205D01*
X-16050609Y946254D01*
X-16027551Y938004D01*
X-16005413Y927533D01*
X-15984407Y914943D01*
X-15964737Y900355D01*
X-15946592Y883908D01*
X-15930145Y865763D01*
X-15915557Y846093D01*
X-15902967Y825087D01*
X-15892496Y802949D01*
X-15884246Y779891D01*
X-15878295Y756135D01*
X-15874702Y731910D01*
X-15873500Y707450D01*
X-15873500Y56550D01*
X-15874702Y32090D01*
X-15878295Y7865D01*
X-15884246Y-15891D01*
X-15892496Y-38949D01*
X-15902967Y-61087D01*
X-15915557Y-82093D01*
X-15930145Y-101763D01*
X-15946592Y-119908D01*
X-15964737Y-136355D01*
X-15984407Y-150943D01*
X-16005413Y-163533D01*
X-16027551Y-174004D01*
X-16050609Y-182254D01*
X-16074365Y-188205D01*
X-16098590Y-191798D01*
X-16123050Y-193000D01*
X-17023950Y-193000D01*
X-17048410Y-191798D01*
X-17072635Y-188205D01*
X-17096391Y-182254D01*
X-17119449Y-174004D01*
X-17141587Y-163533D01*
X-17162593Y-150943D01*
X-17182263Y-136355D01*
X-17200408Y-119908D01*
X-17216855Y-101763D01*
X-17231443Y-82093D01*
X-17244033Y-61087D01*
X-17254504Y-38949D01*
X-17262754Y-15891D01*
X-17268705Y7865D01*
X-17272298Y32090D01*
X-17273500Y56550D01*
X-17273500Y707450D01*
X-17272298Y731910D01*
X-17268705Y756135D01*
X-17262754Y779891D01*
X-17254504Y802949D01*
X-17244033Y825087D01*
X-17231443Y846093D01*
X-17216855Y865763D01*
X-17200408Y883908D01*
X-17182263Y900355D01*
X-17162593Y914943D01*
X-17141587Y927533D01*
X-17119449Y938004D01*
X-17096391Y946254D01*
X-17072635Y952205D01*
X-17048410Y955798D01*
X-17023950Y957000D01*
X-16123050Y957000D01*
X-16098590Y955798D01*
X-16098590Y955798D01*
G37*
D11*
X-16573500Y382000D03*
D10*
G36*
X-16098590Y-1994202D02*
G01*
X-16074365Y-1997795D01*
X-16050609Y-2003746D01*
X-16027551Y-2011996D01*
X-16005413Y-2022467D01*
X-15984407Y-2035057D01*
X-15964737Y-2049645D01*
X-15946592Y-2066092D01*
X-15930145Y-2084237D01*
X-15915557Y-2103907D01*
X-15902967Y-2124913D01*
X-15892496Y-2147051D01*
X-15884246Y-2170109D01*
X-15878295Y-2193865D01*
X-15874702Y-2218090D01*
X-15873500Y-2242550D01*
X-15873500Y-2893450D01*
X-15874702Y-2917910D01*
X-15878295Y-2942135D01*
X-15884246Y-2965891D01*
X-15892496Y-2988949D01*
X-15902967Y-3011087D01*
X-15915557Y-3032093D01*
X-15930145Y-3051763D01*
X-15946592Y-3069908D01*
X-15964737Y-3086355D01*
X-15984407Y-3100943D01*
X-16005413Y-3113533D01*
X-16027551Y-3124004D01*
X-16050609Y-3132254D01*
X-16074365Y-3138205D01*
X-16098590Y-3141798D01*
X-16123050Y-3143000D01*
X-17023950Y-3143000D01*
X-17048410Y-3141798D01*
X-17072635Y-3138205D01*
X-17096391Y-3132254D01*
X-17119449Y-3124004D01*
X-17141587Y-3113533D01*
X-17162593Y-3100943D01*
X-17182263Y-3086355D01*
X-17200408Y-3069908D01*
X-17216855Y-3051763D01*
X-17231443Y-3032093D01*
X-17244033Y-3011087D01*
X-17254504Y-2988949D01*
X-17262754Y-2965891D01*
X-17268705Y-2942135D01*
X-17272298Y-2917910D01*
X-17273500Y-2893450D01*
X-17273500Y-2242550D01*
X-17272298Y-2218090D01*
X-17268705Y-2193865D01*
X-17262754Y-2170109D01*
X-17254504Y-2147051D01*
X-17244033Y-2124913D01*
X-17231443Y-2103907D01*
X-17216855Y-2084237D01*
X-17200408Y-2066092D01*
X-17182263Y-2049645D01*
X-17162593Y-2035057D01*
X-17141587Y-2022467D01*
X-17119449Y-2011996D01*
X-17096391Y-2003746D01*
X-17072635Y-1997795D01*
X-17048410Y-1994202D01*
X-17023950Y-1993000D01*
X-16123050Y-1993000D01*
X-16098590Y-1994202D01*
X-16098590Y-1994202D01*
G37*
D11*
X-16573500Y-2568000D03*
D10*
G36*
X-11082090Y955798D02*
G01*
X-11057865Y952205D01*
X-11034109Y946254D01*
X-11011051Y938004D01*
X-10988913Y927533D01*
X-10967907Y914943D01*
X-10948237Y900355D01*
X-10930092Y883908D01*
X-10913645Y865763D01*
X-10899057Y846093D01*
X-10886467Y825087D01*
X-10875996Y802949D01*
X-10867746Y779891D01*
X-10861795Y756135D01*
X-10858202Y731910D01*
X-10857000Y707450D01*
X-10857000Y56550D01*
X-10858202Y32090D01*
X-10861795Y7865D01*
X-10867746Y-15891D01*
X-10875996Y-38949D01*
X-10886467Y-61087D01*
X-10899057Y-82093D01*
X-10913645Y-101763D01*
X-10930092Y-119908D01*
X-10948237Y-136355D01*
X-10967907Y-150943D01*
X-10988913Y-163533D01*
X-11011051Y-174004D01*
X-11034109Y-182254D01*
X-11057865Y-188205D01*
X-11082090Y-191798D01*
X-11106550Y-193000D01*
X-12007450Y-193000D01*
X-12031910Y-191798D01*
X-12056135Y-188205D01*
X-12079891Y-182254D01*
X-12102949Y-174004D01*
X-12125087Y-163533D01*
X-12146093Y-150943D01*
X-12165763Y-136355D01*
X-12183908Y-119908D01*
X-12200355Y-101763D01*
X-12214943Y-82093D01*
X-12227533Y-61087D01*
X-12238004Y-38949D01*
X-12246254Y-15891D01*
X-12252205Y7865D01*
X-12255798Y32090D01*
X-12257000Y56550D01*
X-12257000Y707450D01*
X-12255798Y731910D01*
X-12252205Y756135D01*
X-12246254Y779891D01*
X-12238004Y802949D01*
X-12227533Y825087D01*
X-12214943Y846093D01*
X-12200355Y865763D01*
X-12183908Y883908D01*
X-12165763Y900355D01*
X-12146093Y914943D01*
X-12125087Y927533D01*
X-12102949Y938004D01*
X-12079891Y946254D01*
X-12056135Y952205D01*
X-12031910Y955798D01*
X-12007450Y957000D01*
X-11106550Y957000D01*
X-11082090Y955798D01*
X-11082090Y955798D01*
G37*
D11*
X-11557000Y382000D03*
D10*
G36*
X-11082090Y-1994202D02*
G01*
X-11057865Y-1997795D01*
X-11034109Y-2003746D01*
X-11011051Y-2011996D01*
X-10988913Y-2022467D01*
X-10967907Y-2035057D01*
X-10948237Y-2049645D01*
X-10930092Y-2066092D01*
X-10913645Y-2084237D01*
X-10899057Y-2103907D01*
X-10886467Y-2124913D01*
X-10875996Y-2147051D01*
X-10867746Y-2170109D01*
X-10861795Y-2193865D01*
X-10858202Y-2218090D01*
X-10857000Y-2242550D01*
X-10857000Y-2893450D01*
X-10858202Y-2917910D01*
X-10861795Y-2942135D01*
X-10867746Y-2965891D01*
X-10875996Y-2988949D01*
X-10886467Y-3011087D01*
X-10899057Y-3032093D01*
X-10913645Y-3051763D01*
X-10930092Y-3069908D01*
X-10948237Y-3086355D01*
X-10967907Y-3100943D01*
X-10988913Y-3113533D01*
X-11011051Y-3124004D01*
X-11034109Y-3132254D01*
X-11057865Y-3138205D01*
X-11082090Y-3141798D01*
X-11106550Y-3143000D01*
X-12007450Y-3143000D01*
X-12031910Y-3141798D01*
X-12056135Y-3138205D01*
X-12079891Y-3132254D01*
X-12102949Y-3124004D01*
X-12125087Y-3113533D01*
X-12146093Y-3100943D01*
X-12165763Y-3086355D01*
X-12183908Y-3069908D01*
X-12200355Y-3051763D01*
X-12214943Y-3032093D01*
X-12227533Y-3011087D01*
X-12238004Y-2988949D01*
X-12246254Y-2965891D01*
X-12252205Y-2942135D01*
X-12255798Y-2917910D01*
X-12257000Y-2893450D01*
X-12257000Y-2242550D01*
X-12255798Y-2218090D01*
X-12252205Y-2193865D01*
X-12246254Y-2170109D01*
X-12238004Y-2147051D01*
X-12227533Y-2124913D01*
X-12214943Y-2103907D01*
X-12200355Y-2084237D01*
X-12183908Y-2066092D01*
X-12165763Y-2049645D01*
X-12146093Y-2035057D01*
X-12125087Y-2022467D01*
X-12102949Y-2011996D01*
X-12079891Y-2003746D01*
X-12056135Y-1997795D01*
X-12031910Y-1994202D01*
X-12007450Y-1993000D01*
X-11106550Y-1993000D01*
X-11082090Y-1994202D01*
X-11082090Y-1994202D01*
G37*
D11*
X-11557000Y-2568000D03*
D10*
G36*
X11904910Y-1994202D02*
G01*
X11929135Y-1997795D01*
X11952891Y-2003746D01*
X11975949Y-2011996D01*
X11998087Y-2022467D01*
X12019093Y-2035057D01*
X12038763Y-2049645D01*
X12056908Y-2066092D01*
X12073355Y-2084237D01*
X12087943Y-2103907D01*
X12100533Y-2124913D01*
X12111004Y-2147051D01*
X12119254Y-2170109D01*
X12125205Y-2193865D01*
X12128798Y-2218090D01*
X12130000Y-2242550D01*
X12130000Y-2893450D01*
X12128798Y-2917910D01*
X12125205Y-2942135D01*
X12119254Y-2965891D01*
X12111004Y-2988949D01*
X12100533Y-3011087D01*
X12087943Y-3032093D01*
X12073355Y-3051763D01*
X12056908Y-3069908D01*
X12038763Y-3086355D01*
X12019093Y-3100943D01*
X11998087Y-3113533D01*
X11975949Y-3124004D01*
X11952891Y-3132254D01*
X11929135Y-3138205D01*
X11904910Y-3141798D01*
X11880450Y-3143000D01*
X10979550Y-3143000D01*
X10955090Y-3141798D01*
X10930865Y-3138205D01*
X10907109Y-3132254D01*
X10884051Y-3124004D01*
X10861913Y-3113533D01*
X10840907Y-3100943D01*
X10821237Y-3086355D01*
X10803092Y-3069908D01*
X10786645Y-3051763D01*
X10772057Y-3032093D01*
X10759467Y-3011087D01*
X10748996Y-2988949D01*
X10740746Y-2965891D01*
X10734795Y-2942135D01*
X10731202Y-2917910D01*
X10730000Y-2893450D01*
X10730000Y-2242550D01*
X10731202Y-2218090D01*
X10734795Y-2193865D01*
X10740746Y-2170109D01*
X10748996Y-2147051D01*
X10759467Y-2124913D01*
X10772057Y-2103907D01*
X10786645Y-2084237D01*
X10803092Y-2066092D01*
X10821237Y-2049645D01*
X10840907Y-2035057D01*
X10861913Y-2022467D01*
X10884051Y-2011996D01*
X10907109Y-2003746D01*
X10930865Y-1997795D01*
X10955090Y-1994202D01*
X10979550Y-1993000D01*
X11880450Y-1993000D01*
X11904910Y-1994202D01*
X11904910Y-1994202D01*
G37*
D11*
X11430000Y-2568000D03*
D10*
G36*
X11904910Y955798D02*
G01*
X11929135Y952205D01*
X11952891Y946254D01*
X11975949Y938004D01*
X11998087Y927533D01*
X12019093Y914943D01*
X12038763Y900355D01*
X12056908Y883908D01*
X12073355Y865763D01*
X12087943Y846093D01*
X12100533Y825087D01*
X12111004Y802949D01*
X12119254Y779891D01*
X12125205Y756135D01*
X12128798Y731910D01*
X12130000Y707450D01*
X12130000Y56550D01*
X12128798Y32090D01*
X12125205Y7865D01*
X12119254Y-15891D01*
X12111004Y-38949D01*
X12100533Y-61087D01*
X12087943Y-82093D01*
X12073355Y-101763D01*
X12056908Y-119908D01*
X12038763Y-136355D01*
X12019093Y-150943D01*
X11998087Y-163533D01*
X11975949Y-174004D01*
X11952891Y-182254D01*
X11929135Y-188205D01*
X11904910Y-191798D01*
X11880450Y-193000D01*
X10979550Y-193000D01*
X10955090Y-191798D01*
X10930865Y-188205D01*
X10907109Y-182254D01*
X10884051Y-174004D01*
X10861913Y-163533D01*
X10840907Y-150943D01*
X10821237Y-136355D01*
X10803092Y-119908D01*
X10786645Y-101763D01*
X10772057Y-82093D01*
X10759467Y-61087D01*
X10748996Y-38949D01*
X10740746Y-15891D01*
X10734795Y7865D01*
X10731202Y32090D01*
X10730000Y56550D01*
X10730000Y707450D01*
X10731202Y731910D01*
X10734795Y756135D01*
X10740746Y779891D01*
X10748996Y802949D01*
X10759467Y825087D01*
X10772057Y846093D01*
X10786645Y865763D01*
X10803092Y883908D01*
X10821237Y900355D01*
X10840907Y914943D01*
X10861913Y927533D01*
X10884051Y938004D01*
X10907109Y946254D01*
X10930865Y952205D01*
X10955090Y955798D01*
X10979550Y957000D01*
X11880450Y957000D01*
X11904910Y955798D01*
X11904910Y955798D01*
G37*
D11*
X11430000Y382000D03*
D10*
G36*
X14444910Y-1330202D02*
G01*
X14469135Y-1333795D01*
X14492891Y-1339746D01*
X14515949Y-1347996D01*
X14538087Y-1358467D01*
X14559093Y-1371057D01*
X14578763Y-1385645D01*
X14596908Y-1402092D01*
X14613355Y-1420237D01*
X14627943Y-1439907D01*
X14640533Y-1460913D01*
X14651004Y-1483051D01*
X14659254Y-1506109D01*
X14665205Y-1529865D01*
X14668798Y-1554090D01*
X14670000Y-1578550D01*
X14670000Y-2229450D01*
X14668798Y-2253910D01*
X14665205Y-2278135D01*
X14659254Y-2301891D01*
X14651004Y-2324949D01*
X14640533Y-2347087D01*
X14627943Y-2368093D01*
X14613355Y-2387763D01*
X14596908Y-2405908D01*
X14578763Y-2422355D01*
X14559093Y-2436943D01*
X14538087Y-2449533D01*
X14515949Y-2460004D01*
X14492891Y-2468254D01*
X14469135Y-2474205D01*
X14444910Y-2477798D01*
X14420450Y-2479000D01*
X13519550Y-2479000D01*
X13495090Y-2477798D01*
X13470865Y-2474205D01*
X13447109Y-2468254D01*
X13424051Y-2460004D01*
X13401913Y-2449533D01*
X13380907Y-2436943D01*
X13361237Y-2422355D01*
X13343092Y-2405908D01*
X13326645Y-2387763D01*
X13312057Y-2368093D01*
X13299467Y-2347087D01*
X13288996Y-2324949D01*
X13280746Y-2301891D01*
X13274795Y-2278135D01*
X13271202Y-2253910D01*
X13270000Y-2229450D01*
X13270000Y-1578550D01*
X13271202Y-1554090D01*
X13274795Y-1529865D01*
X13280746Y-1506109D01*
X13288996Y-1483051D01*
X13299467Y-1460913D01*
X13312057Y-1439907D01*
X13326645Y-1420237D01*
X13343092Y-1402092D01*
X13361237Y-1385645D01*
X13380907Y-1371057D01*
X13401913Y-1358467D01*
X13424051Y-1347996D01*
X13447109Y-1339746D01*
X13470865Y-1333795D01*
X13495090Y-1330202D01*
X13519550Y-1329000D01*
X14420450Y-1329000D01*
X14444910Y-1330202D01*
X14444910Y-1330202D01*
G37*
D11*
X13970000Y-1904000D03*
D10*
G36*
X14444910Y-4280202D02*
G01*
X14469135Y-4283795D01*
X14492891Y-4289746D01*
X14515949Y-4297996D01*
X14538087Y-4308467D01*
X14559093Y-4321057D01*
X14578763Y-4335645D01*
X14596908Y-4352092D01*
X14613355Y-4370237D01*
X14627943Y-4389907D01*
X14640533Y-4410913D01*
X14651004Y-4433051D01*
X14659254Y-4456109D01*
X14665205Y-4479865D01*
X14668798Y-4504090D01*
X14670000Y-4528550D01*
X14670000Y-5179450D01*
X14668798Y-5203910D01*
X14665205Y-5228135D01*
X14659254Y-5251891D01*
X14651004Y-5274949D01*
X14640533Y-5297087D01*
X14627943Y-5318093D01*
X14613355Y-5337763D01*
X14596908Y-5355908D01*
X14578763Y-5372355D01*
X14559093Y-5386943D01*
X14538087Y-5399533D01*
X14515949Y-5410004D01*
X14492891Y-5418254D01*
X14469135Y-5424205D01*
X14444910Y-5427798D01*
X14420450Y-5429000D01*
X13519550Y-5429000D01*
X13495090Y-5427798D01*
X13470865Y-5424205D01*
X13447109Y-5418254D01*
X13424051Y-5410004D01*
X13401913Y-5399533D01*
X13380907Y-5386943D01*
X13361237Y-5372355D01*
X13343092Y-5355908D01*
X13326645Y-5337763D01*
X13312057Y-5318093D01*
X13299467Y-5297087D01*
X13288996Y-5274949D01*
X13280746Y-5251891D01*
X13274795Y-5228135D01*
X13271202Y-5203910D01*
X13270000Y-5179450D01*
X13270000Y-4528550D01*
X13271202Y-4504090D01*
X13274795Y-4479865D01*
X13280746Y-4456109D01*
X13288996Y-4433051D01*
X13299467Y-4410913D01*
X13312057Y-4389907D01*
X13326645Y-4370237D01*
X13343092Y-4352092D01*
X13361237Y-4335645D01*
X13380907Y-4321057D01*
X13401913Y-4308467D01*
X13424051Y-4297996D01*
X13447109Y-4289746D01*
X13470865Y-4283795D01*
X13495090Y-4280202D01*
X13519550Y-4279000D01*
X14420450Y-4279000D01*
X14444910Y-4280202D01*
X14444910Y-4280202D01*
G37*
D11*
X13970000Y-4854000D03*
D10*
G36*
X16984910Y-1994202D02*
G01*
X17009135Y-1997795D01*
X17032891Y-2003746D01*
X17055949Y-2011996D01*
X17078087Y-2022467D01*
X17099093Y-2035057D01*
X17118763Y-2049645D01*
X17136908Y-2066092D01*
X17153355Y-2084237D01*
X17167943Y-2103907D01*
X17180533Y-2124913D01*
X17191004Y-2147051D01*
X17199254Y-2170109D01*
X17205205Y-2193865D01*
X17208798Y-2218090D01*
X17210000Y-2242550D01*
X17210000Y-2893450D01*
X17208798Y-2917910D01*
X17205205Y-2942135D01*
X17199254Y-2965891D01*
X17191004Y-2988949D01*
X17180533Y-3011087D01*
X17167943Y-3032093D01*
X17153355Y-3051763D01*
X17136908Y-3069908D01*
X17118763Y-3086355D01*
X17099093Y-3100943D01*
X17078087Y-3113533D01*
X17055949Y-3124004D01*
X17032891Y-3132254D01*
X17009135Y-3138205D01*
X16984910Y-3141798D01*
X16960450Y-3143000D01*
X16059550Y-3143000D01*
X16035090Y-3141798D01*
X16010865Y-3138205D01*
X15987109Y-3132254D01*
X15964051Y-3124004D01*
X15941913Y-3113533D01*
X15920907Y-3100943D01*
X15901237Y-3086355D01*
X15883092Y-3069908D01*
X15866645Y-3051763D01*
X15852057Y-3032093D01*
X15839467Y-3011087D01*
X15828996Y-2988949D01*
X15820746Y-2965891D01*
X15814795Y-2942135D01*
X15811202Y-2917910D01*
X15810000Y-2893450D01*
X15810000Y-2242550D01*
X15811202Y-2218090D01*
X15814795Y-2193865D01*
X15820746Y-2170109D01*
X15828996Y-2147051D01*
X15839467Y-2124913D01*
X15852057Y-2103907D01*
X15866645Y-2084237D01*
X15883092Y-2066092D01*
X15901237Y-2049645D01*
X15920907Y-2035057D01*
X15941913Y-2022467D01*
X15964051Y-2011996D01*
X15987109Y-2003746D01*
X16010865Y-1997795D01*
X16035090Y-1994202D01*
X16059550Y-1993000D01*
X16960450Y-1993000D01*
X16984910Y-1994202D01*
X16984910Y-1994202D01*
G37*
D11*
X16510000Y-2568000D03*
D10*
G36*
X16984910Y955798D02*
G01*
X17009135Y952205D01*
X17032891Y946254D01*
X17055949Y938004D01*
X17078087Y927533D01*
X17099093Y914943D01*
X17118763Y900355D01*
X17136908Y883908D01*
X17153355Y865763D01*
X17167943Y846093D01*
X17180533Y825087D01*
X17191004Y802949D01*
X17199254Y779891D01*
X17205205Y756135D01*
X17208798Y731910D01*
X17210000Y707450D01*
X17210000Y56550D01*
X17208798Y32090D01*
X17205205Y7865D01*
X17199254Y-15891D01*
X17191004Y-38949D01*
X17180533Y-61087D01*
X17167943Y-82093D01*
X17153355Y-101763D01*
X17136908Y-119908D01*
X17118763Y-136355D01*
X17099093Y-150943D01*
X17078087Y-163533D01*
X17055949Y-174004D01*
X17032891Y-182254D01*
X17009135Y-188205D01*
X16984910Y-191798D01*
X16960450Y-193000D01*
X16059550Y-193000D01*
X16035090Y-191798D01*
X16010865Y-188205D01*
X15987109Y-182254D01*
X15964051Y-174004D01*
X15941913Y-163533D01*
X15920907Y-150943D01*
X15901237Y-136355D01*
X15883092Y-119908D01*
X15866645Y-101763D01*
X15852057Y-82093D01*
X15839467Y-61087D01*
X15828996Y-38949D01*
X15820746Y-15891D01*
X15814795Y7865D01*
X15811202Y32090D01*
X15810000Y56550D01*
X15810000Y707450D01*
X15811202Y731910D01*
X15814795Y756135D01*
X15820746Y779891D01*
X15828996Y802949D01*
X15839467Y825087D01*
X15852057Y846093D01*
X15866645Y865763D01*
X15883092Y883908D01*
X15901237Y900355D01*
X15920907Y914943D01*
X15941913Y927533D01*
X15964051Y938004D01*
X15987109Y946254D01*
X16010865Y952205D01*
X16035090Y955798D01*
X16059550Y957000D01*
X16960450Y957000D01*
X16984910Y955798D01*
X16984910Y955798D01*
G37*
D11*
X16510000Y382000D03*
D10*
G36*
X-6002495Y-2483204D02*
G01*
X-5978227Y-2486804D01*
X-5954428Y-2492765D01*
X-5931329Y-2501030D01*
X-5909150Y-2511520D01*
X-5888107Y-2524132D01*
X-5868401Y-2538747D01*
X-5850223Y-2555223D01*
X-5833747Y-2573401D01*
X-5819132Y-2593107D01*
X-5806520Y-2614150D01*
X-5796030Y-2636329D01*
X-5787765Y-2659428D01*
X-5781804Y-2683227D01*
X-5778204Y-2707495D01*
X-5777000Y-2731999D01*
X-5777000Y-3382001D01*
X-5778204Y-3406505D01*
X-5781804Y-3430773D01*
X-5787765Y-3454572D01*
X-5796030Y-3477671D01*
X-5806520Y-3499850D01*
X-5819132Y-3520893D01*
X-5833747Y-3540599D01*
X-5850223Y-3558777D01*
X-5868401Y-3575253D01*
X-5888107Y-3589868D01*
X-5909150Y-3602480D01*
X-5931329Y-3612970D01*
X-5954428Y-3621235D01*
X-5978227Y-3627196D01*
X-6002495Y-3630796D01*
X-6026999Y-3632000D01*
X-6927001Y-3632000D01*
X-6951505Y-3630796D01*
X-6975773Y-3627196D01*
X-6999572Y-3621235D01*
X-7022671Y-3612970D01*
X-7044850Y-3602480D01*
X-7065893Y-3589868D01*
X-7085599Y-3575253D01*
X-7103777Y-3558777D01*
X-7120253Y-3540599D01*
X-7134868Y-3520893D01*
X-7147480Y-3499850D01*
X-7157970Y-3477671D01*
X-7166235Y-3454572D01*
X-7172196Y-3430773D01*
X-7175796Y-3406505D01*
X-7177000Y-3382001D01*
X-7177000Y-2731999D01*
X-7175796Y-2707495D01*
X-7172196Y-2683227D01*
X-7166235Y-2659428D01*
X-7157970Y-2636329D01*
X-7147480Y-2614150D01*
X-7134868Y-2593107D01*
X-7120253Y-2573401D01*
X-7103777Y-2555223D01*
X-7085599Y-2538747D01*
X-7065893Y-2524132D01*
X-7044850Y-2511520D01*
X-7022671Y-2501030D01*
X-6999572Y-2492765D01*
X-6975773Y-2486804D01*
X-6951505Y-2483204D01*
X-6927001Y-2482000D01*
X-6026999Y-2482000D01*
X-6002495Y-2483204D01*
X-6002495Y-2483204D01*
G37*
D11*
X-6477000Y-3057000D03*
D10*
G36*
X-6002495Y-433204D02*
G01*
X-5978227Y-436804D01*
X-5954428Y-442765D01*
X-5931329Y-451030D01*
X-5909150Y-461520D01*
X-5888107Y-474132D01*
X-5868401Y-488747D01*
X-5850223Y-505223D01*
X-5833747Y-523401D01*
X-5819132Y-543107D01*
X-5806520Y-564150D01*
X-5796030Y-586329D01*
X-5787765Y-609428D01*
X-5781804Y-633227D01*
X-5778204Y-657495D01*
X-5777000Y-681999D01*
X-5777000Y-1332001D01*
X-5778204Y-1356505D01*
X-5781804Y-1380773D01*
X-5787765Y-1404572D01*
X-5796030Y-1427671D01*
X-5806520Y-1449850D01*
X-5819132Y-1470893D01*
X-5833747Y-1490599D01*
X-5850223Y-1508777D01*
X-5868401Y-1525253D01*
X-5888107Y-1539868D01*
X-5909150Y-1552480D01*
X-5931329Y-1562970D01*
X-5954428Y-1571235D01*
X-5978227Y-1577196D01*
X-6002495Y-1580796D01*
X-6026999Y-1582000D01*
X-6927001Y-1582000D01*
X-6951505Y-1580796D01*
X-6975773Y-1577196D01*
X-6999572Y-1571235D01*
X-7022671Y-1562970D01*
X-7044850Y-1552480D01*
X-7065893Y-1539868D01*
X-7085599Y-1525253D01*
X-7103777Y-1508777D01*
X-7120253Y-1490599D01*
X-7134868Y-1470893D01*
X-7147480Y-1449850D01*
X-7157970Y-1427671D01*
X-7166235Y-1404572D01*
X-7172196Y-1380773D01*
X-7175796Y-1356505D01*
X-7177000Y-1332001D01*
X-7177000Y-681999D01*
X-7175796Y-657495D01*
X-7172196Y-633227D01*
X-7166235Y-609428D01*
X-7157970Y-586329D01*
X-7147480Y-564150D01*
X-7134868Y-543107D01*
X-7120253Y-523401D01*
X-7103777Y-505223D01*
X-7085599Y-488747D01*
X-7065893Y-474132D01*
X-7044850Y-461520D01*
X-7022671Y-451030D01*
X-6999572Y-442765D01*
X-6975773Y-436804D01*
X-6951505Y-433204D01*
X-6927001Y-432000D01*
X-6026999Y-432000D01*
X-6002495Y-433204D01*
X-6002495Y-433204D01*
G37*
D11*
X-6477000Y-1007000D03*
D10*
G36*
X6951505Y-433204D02*
G01*
X6975773Y-436804D01*
X6999572Y-442765D01*
X7022671Y-451030D01*
X7044850Y-461520D01*
X7065893Y-474132D01*
X7085599Y-488747D01*
X7103777Y-505223D01*
X7120253Y-523401D01*
X7134868Y-543107D01*
X7147480Y-564150D01*
X7157970Y-586329D01*
X7166235Y-609428D01*
X7172196Y-633227D01*
X7175796Y-657495D01*
X7177000Y-681999D01*
X7177000Y-1332001D01*
X7175796Y-1356505D01*
X7172196Y-1380773D01*
X7166235Y-1404572D01*
X7157970Y-1427671D01*
X7147480Y-1449850D01*
X7134868Y-1470893D01*
X7120253Y-1490599D01*
X7103777Y-1508777D01*
X7085599Y-1525253D01*
X7065893Y-1539868D01*
X7044850Y-1552480D01*
X7022671Y-1562970D01*
X6999572Y-1571235D01*
X6975773Y-1577196D01*
X6951505Y-1580796D01*
X6927001Y-1582000D01*
X6026999Y-1582000D01*
X6002495Y-1580796D01*
X5978227Y-1577196D01*
X5954428Y-1571235D01*
X5931329Y-1562970D01*
X5909150Y-1552480D01*
X5888107Y-1539868D01*
X5868401Y-1525253D01*
X5850223Y-1508777D01*
X5833747Y-1490599D01*
X5819132Y-1470893D01*
X5806520Y-1449850D01*
X5796030Y-1427671D01*
X5787765Y-1404572D01*
X5781804Y-1380773D01*
X5778204Y-1356505D01*
X5777000Y-1332001D01*
X5777000Y-681999D01*
X5778204Y-657495D01*
X5781804Y-633227D01*
X5787765Y-609428D01*
X5796030Y-586329D01*
X5806520Y-564150D01*
X5819132Y-543107D01*
X5833747Y-523401D01*
X5850223Y-505223D01*
X5868401Y-488747D01*
X5888107Y-474132D01*
X5909150Y-461520D01*
X5931329Y-451030D01*
X5954428Y-442765D01*
X5978227Y-436804D01*
X6002495Y-433204D01*
X6026999Y-432000D01*
X6927001Y-432000D01*
X6951505Y-433204D01*
X6951505Y-433204D01*
G37*
D11*
X6477000Y-1007000D03*
D10*
G36*
X6951505Y-2483204D02*
G01*
X6975773Y-2486804D01*
X6999572Y-2492765D01*
X7022671Y-2501030D01*
X7044850Y-2511520D01*
X7065893Y-2524132D01*
X7085599Y-2538747D01*
X7103777Y-2555223D01*
X7120253Y-2573401D01*
X7134868Y-2593107D01*
X7147480Y-2614150D01*
X7157970Y-2636329D01*
X7166235Y-2659428D01*
X7172196Y-2683227D01*
X7175796Y-2707495D01*
X7177000Y-2731999D01*
X7177000Y-3382001D01*
X7175796Y-3406505D01*
X7172196Y-3430773D01*
X7166235Y-3454572D01*
X7157970Y-3477671D01*
X7147480Y-3499850D01*
X7134868Y-3520893D01*
X7120253Y-3540599D01*
X7103777Y-3558777D01*
X7085599Y-3575253D01*
X7065893Y-3589868D01*
X7044850Y-3602480D01*
X7022671Y-3612970D01*
X6999572Y-3621235D01*
X6975773Y-3627196D01*
X6951505Y-3630796D01*
X6927001Y-3632000D01*
X6026999Y-3632000D01*
X6002495Y-3630796D01*
X5978227Y-3627196D01*
X5954428Y-3621235D01*
X5931329Y-3612970D01*
X5909150Y-3602480D01*
X5888107Y-3589868D01*
X5868401Y-3575253D01*
X5850223Y-3558777D01*
X5833747Y-3540599D01*
X5819132Y-3520893D01*
X5806520Y-3499850D01*
X5796030Y-3477671D01*
X5787765Y-3454572D01*
X5781804Y-3430773D01*
X5778204Y-3406505D01*
X5777000Y-3382001D01*
X5777000Y-2731999D01*
X5778204Y-2707495D01*
X5781804Y-2683227D01*
X5787765Y-2659428D01*
X5796030Y-2636329D01*
X5806520Y-2614150D01*
X5819132Y-2593107D01*
X5833747Y-2573401D01*
X5850223Y-2555223D01*
X5868401Y-2538747D01*
X5888107Y-2524132D01*
X5909150Y-2511520D01*
X5931329Y-2501030D01*
X5954428Y-2492765D01*
X5978227Y-2486804D01*
X6002495Y-2483204D01*
X6026999Y-2482000D01*
X6927001Y-2482000D01*
X6951505Y-2483204D01*
X6951505Y-2483204D01*
G37*
D11*
X6477000Y-3057000D03*
M02*
